<?xml version="1.0" encoding="UTF-8"?>
<svg width="68px" height="63px" viewBox="0 0 68 63" version="1.1" xmlns="http://www.w3.org/2000/svg" xmlns:xlink="http://www.w3.org/1999/xlink">
    <!-- Generator: Sketch 61 (89581) - https://sketch.com -->
    <title>Group 11</title>
    <desc>Created with Sketch.</desc>
    <g id="Page-1" stroke="none" stroke-width="1" fill="none" fill-rule="evenodd">
        <g id="01_Home" transform="translate(-252.000000, -3092.000000)" stroke="#FFFFFF" stroke-width="2.5">
            <g id="Group-11" transform="translate(254.000000, 3093.000000)">
                <g id="Group-5" transform="translate(0.000000, 0.500000)">
                    <polygon id="Stroke-1" stroke-linecap="round" stroke-linejoin="round" points="32 31.3432836 36.3753532 41.1578743 47.0588235 42.2892975 39.0794227 49.485723 41.306747 60 32 54.6324936 22.6922801 60 24.9186314 49.485723 16.9411765 42.2892975 27.6256197 41.1578743"></polygon>
                    <polyline id="Stroke-3" stroke-linecap="round" stroke-linejoin="round" points="45.1764706 37.0967544 49.8561214 36.6062665 53.0396327 29.5522388 56.2251569 36.6062665 64 37.4201832 58.1928346 42.5920595 59.8137783 50.1492537 53.0396327 46.2919747 47.8028925 49.2741814"></polyline>
                    <polyline id="Stroke-5" stroke-linecap="round" stroke-linejoin="round" points="18.8235294 37.0967544 14.1438786 36.6062665 10.9603673 29.5522388 7.77484307 36.6062665 0 37.4201832 5.80716539 42.5920595 4.1862217 50.1492537 10.9603673 46.2919747 16.1971075 49.2741814"></polyline>
                    <path d="M17.8823529,31.3432836 L17.8823529,25.4610418 C17.8823529,20.599669 21.5327735,18.8059701 26.2308932,18.8059701 L32.0030049,24.9314253 L37.3601936,18.8059701 C42.0583133,18.8059701 46.1176471,20.599669 46.1176471,25.4610418 L46.1176471,31.3432836" id="Stroke-7" stroke-linejoin="round"></path>
                    <path d="M38.5882353,8.28421614 C38.5882353,11.6083373 35.8340839,14.3283582 32.4692228,14.3283582 C29.1060996,14.3283582 26.3529412,11.6083373 26.3529412,8.28421614 L26.3529412,6.04438361 C26.3529412,2.72026248 29.1060996,1.50990331e-14 32.4692228,1.50990331e-14 C35.8340839,1.50990331e-14 38.5882353,2.72026248 38.5882353,6.04438361 L38.5882353,8.28421614 Z" id="Stroke-9"></path>
                </g>
            </g>
        </g>
    </g>
</svg>