<?xml version="1.0" encoding="UTF-8"?>
<svg width="34px" height="30px" viewBox="0 0 34 30" version="1.1" xmlns="http://www.w3.org/2000/svg" xmlns:xlink="http://www.w3.org/1999/xlink">
    <!-- Generator: Sketch 61 (89581) - https://sketch.com -->
    <title>Shape</title>
    <desc>Created with Sketch.</desc>
    <g id="Page-1" stroke="none" stroke-width="1" fill="none" fill-rule="evenodd">
        <g id="01_Home" transform="translate(-1261.000000, -102.000000)" fill="#000000" fill-rule="nonzero">
            <g id="Group-29" transform="translate(-1.000000, 0.000000)">
                <g id="noun_shopping_2339137" transform="translate(1262.000000, 102.000000)">
                    <g id="Group">
                        <path d="M0.388407345,0.144896451 C0.175018709,0.144896451 0.00204370909,0.324004 0.00204370909,0.544916 C0.00204370909,0.765828 0.175018709,0.944916 0.388407345,0.944916 L5.5318738,0.944916 C7.54540789,6.138908 9.54955334,11.334684 11.5567124,16.5324 L9.68528289,21.1824 C9.57992152,21.42764 9.78828743,21.75124 10.0474988,21.7449723 L29.3656806,21.7449723 C29.5697965,21.74888 29.7575306,21.55624 29.7575306,21.34488 C29.7575306,21.13356 29.5697965,20.94192 29.3656806,20.94488 L10.6270442,20.94488 L12.2570352,16.9074 L31.3337397,15.3324 C31.4912215,15.3168 31.6329783,15.19116 31.6718079,15.0324 L33.9899897,4.632416 C34.040217,4.400264 33.8454897,4.146604 33.6156806,4.144916 L7.60857834,4.144916 L6.1597147,0.394916 C6.1019147,0.246976 5.95161925,0.14326 5.7974988,0.144896451 L0.388407345,0.144896451 Z M7.9224988,4.944916 L33.1327261,4.944916 L30.9835783,14.56992 L12.2328488,16.11992 L7.9224988,4.944916 Z M14.2974988,23.34484 C12.5950261,23.34484 11.2065897,24.78224 11.2065897,26.54484 C11.2065897,28.30744 12.5950261,29.74484 14.2974988,29.74484 C15.9999715,29.74484 17.3884079,28.3074 17.3884079,26.54484 C17.3884079,24.78228 15.9999715,23.34484 14.2974988,23.34484 Z M25.1156806,23.34484 C23.4132079,23.34484 22.0247715,24.78228 22.0247715,26.54484 C22.0247715,28.3074 23.4132079,29.74484 25.1156806,29.74484 C26.8181533,29.74484 28.2065897,28.30744 28.2065897,26.54484 C28.2065897,24.78224 26.8181533,23.34484 25.1156806,23.34484 Z M14.2974988,24.14484 C15.5823897,24.14484 16.6156806,25.2146 16.6156806,26.54484 C16.6156806,27.87508 15.5823897,28.94484 14.2974988,28.94484 C13.0126852,28.94484 11.979317,27.87504 11.979317,26.54484 C11.979317,25.21464 13.0126852,24.14484 14.2974988,24.14484 Z M25.1156806,24.14484 C26.4004943,24.14484 27.4338624,25.21464 27.4338624,26.54484 C27.4338624,27.87504 26.4004943,28.94484 25.1156806,28.94484 C23.8307897,28.94484 22.7974988,27.87508 22.7974988,26.54484 C22.7974988,25.2146 23.8307897,24.14484 25.1156806,24.14484 Z" id="Shape"></path>
                    </g>
                </g>
            </g>
        </g>
    </g>
</svg>