<?xml version="1.0" encoding="UTF-8"?>
<svg width="50px" height="70px" viewBox="0 0 50 70" version="1.1" xmlns="http://www.w3.org/2000/svg" xmlns:xlink="http://www.w3.org/1999/xlink">
    <!-- Generator: Sketch 61 (89581) - https://sketch.com -->
    <title>Group 6</title>
    <desc>Created with Sketch.</desc>
    <g id="Page-1" stroke="none" stroke-width="1" fill="none" fill-rule="evenodd">
        <g id="01_Home" transform="translate(-700.000000, -3086.000000)" stroke="#FFFFFF">
            <g id="Group-6" transform="translate(702.000000, 3088.000000)">
                <path d="M35.3533233,6.18103194 L35.3533233,3.0498544 C35.3533233,0.825665762 33.5942029,-0.430543389 31.7121439,0.135095031 L0,10.8123809 L0,66 L42.9175412,66 C44.6126937,66 46,64.6336143 46,62.9662106 L46,13.8461703 C46,12.1777829 44.6126937,10.8123809 42.9175412,10.8123809 L0.0619690155,10.8123809" id="Stroke-1" stroke-width="2.5" stroke-linejoin="round"></path>
                <g id="Group-21" transform="translate(9.000000, 31.000000)" stroke-width="1.5">
                    <g id="Group-19">
                        <path d="M28.1566969,13.7619048 C28.1566969,13.7619048 28.8609262,9.86717887 24.1858379,8.69374678 C24.1858379,8.69374678 21.3877591,8.13929499 20.2434366,7.25932368 C20.2434366,7.25932368 14.0099856,3.4435116 12.3882943,1.87838748 C12.3882943,1.87838748 8.10399912,-3.72408283 8.57255006,4.42212519 C8.57255006,4.42212519 6.42579312,6.18288983 3.70707537,5.106867 C3.70707537,5.106867 3.10826005,3.88000368 2.65814653,2.95441031 C2.65814653,2.95441031 1.51262163,0.997594149 0.749472791,3.34569135 C0.749472791,3.34569135 -0.509081499,8.10846928 0.235629925,11.9070189" id="Stroke-1" stroke-linejoin="round"></path>
                        <path d="M0.261623055,13.7619048 C0.261623055,13.7619048 -0.255782968,16.0526259 0.164660352,17 L28.8672503,17 C28.8672503,17 29.2225086,15.4552303 28.770695,13.7619048 L0.261623055,13.7619048 Z" id="Stroke-3" stroke-linecap="round" stroke-linejoin="round"></path>
                        <line x1="9.66666667" y1="4.04761905" x2="8.05555556" y2="4.85714286" id="Stroke-5" stroke-linecap="round"></line>
                        <line x1="6.84722222" y1="13.7619048" x2="11.6805556" y2="7.28571429" id="Stroke-7" stroke-linejoin="round"></line>
                        <line x1="10.4722222" y1="13.7619048" x2="13.6944444" y2="9.30952381" id="Stroke-9" stroke-linejoin="round"></line>
                        <line x1="13.6944444" y1="13.7619048" x2="15.7083333" y2="10.9285714" id="Stroke-11" stroke-linejoin="round"></line>
                        <line x1="14.5" y1="4.04761905" x2="13.6944444" y2="4.85714286" id="Stroke-13" stroke-linecap="round"></line>
                        <line x1="16.9166667" y1="5.66666667" x2="16.1111111" y2="6.47619048" id="Stroke-15" stroke-linecap="round"></line>
                        <line x1="19.3333333" y1="7.28571429" x2="18.5277778" y2="8.0952381" id="Stroke-17" stroke-linecap="round"></line>
                    </g>
                </g>
            </g>
        </g>
    </g>
</svg>