<?xml version="1.0" encoding="UTF-8"?>
<svg width="64px" height="65px" viewBox="0 0 64 65" version="1.1" xmlns="http://www.w3.org/2000/svg" xmlns:xlink="http://www.w3.org/1999/xlink">
    <!-- Generator: Sketch 61 (89581) - https://sketch.com -->
    <title>Group 9</title>
    <desc>Created with Sketch.</desc>
    <g id="Page-1" stroke="none" stroke-width="1" fill="none" fill-rule="evenodd" stroke-linecap="round">
        <g id="01_Home" transform="translate(-694.000000, -3449.000000)" stroke="#FFFFFF" stroke-width="2.5">
            <g id="Group-9" transform="translate(695.000000, 3451.000000)">
                <line x1="38" y1="20" x2="23" y2="42" id="Stroke-1"></line>
                <g id="Group-8">
                    <path d="M27.6944841,23.7122444 C27.6944841,25.8133556 26.0194048,27.5178635 23.9521825,27.5178635 C21.8849603,27.5178635 20.209881,25.8133556 20.209881,23.7122444 C20.209881,21.6111333 21.8849603,19.9066254 23.9521825,19.9066254 C26.0194048,19.9066254 27.6944841,21.6111333 27.6944841,23.7122444 Z" id="Stroke-2"></path>
                    <path d="M40.8775524,38.1973143 C40.8775524,40.2984254 39.2005365,42.0029333 37.1333143,42.0029333 C35.0680286,42.0029333 33.3910127,40.2984254 33.3910127,38.1973143 C33.3910127,36.0962032 35.0680286,34.3936635 37.1333143,34.3936635 C39.2005365,34.3936635 40.8775524,36.0962032 40.8775524,38.1973143 Z" id="Stroke-4"></path>
                    <polygon id="Stroke-6" stroke-linejoin="round" points="30.5434746 0.156574603 36.4459508 8.57184444 45.6947127 4.28301905 46.6649032 14.5691143 56.7850937 15.5561937 52.5673794 24.9575587 60.8449825 30.9548286 52.5673794 36.9520984 56.7850937 46.3544476 46.6649032 47.3405429 45.6947127 57.625654 36.4459508 53.339781 30.5434746 61.7540667 24.6429349 53.339781 15.394173 57.625654 14.422046 47.3405429 4.30185556 46.3544476 8.52150635 36.9520984 0.241966667 30.9548286 8.52150635 24.9575587 4.30185556 15.5561937 14.422046 14.5691143 15.394173 4.28301905 24.6429349 8.57184444"></polygon>
                </g>
            </g>
        </g>
    </g>
</svg>