<?xml version="1.0" encoding="UTF-8"?>
<svg width="50px" height="42px" viewBox="0 0 50 42" version="1.1" xmlns="http://www.w3.org/2000/svg" xmlns:xlink="http://www.w3.org/1999/xlink">
    <title>Group 28</title>
    <g id="Page-1" stroke="none" stroke-width="1" fill="none" fill-rule="evenodd">
        <g id="ventanas" transform="translate(-656.000000, -2239.000000)" stroke="#FFFFFF" stroke-width="2.5">
            <g id="Group-26" transform="translate(549.000000, 2227.000000)">
                <g id="Group-28" transform="translate(109.000000, 14.000000)">
                    <path d="M30.2231845,20.993431 L34.0447479,20.993431 L40.8180437,28.9763276 L40.8193676,20.993431 L42.6503817,20.993431 C44.7150718,20.993431 46.4031,19.2787759 46.4031,17.1808448 L46.4031,3.81325862 C46.4031,1.71532759 44.7150718,-4.36983782e-13 42.6503817,-4.36983782e-13 L22.9342127,-4.36983782e-13 C20.8701845,-4.36983782e-13 19.1814944,1.71532759 19.1814944,3.81325862 L19.1814944,6.77389655" id="Stroke-1" stroke-linejoin="round"></path>
                    <path d="M5.58505634,38.7119379 L5.58439437,30.7290414 L3.75271831,30.7290414 C1.68869014,30.7290414 3.49942297e-12,29.0137138 3.49942297e-12,26.9164552 L3.49942297e-12,13.548869 C3.49942297e-12,11.4509379 1.68869014,9.73561034 3.75271831,9.73561034 L23.4695493,9.73561034 C25.5335775,9.73561034 27.2222676,11.4509379 27.2222676,13.548869 L27.2222676,26.9164552 C27.2222676,29.0137138 25.5335775,30.7290414 23.4695493,30.7290414 L12.3583521,30.7290414 L5.58505634,38.7119379 Z" id="Stroke-3" stroke-linecap="round" stroke-linejoin="round"></path>
                    <path d="M32.6712887,10.4541517 C32.6712887,10.7446345 32.4409225,10.9779621 32.1556127,10.9779621 C31.8709648,10.9779621 31.6392746,10.7446345 31.6392746,10.4541517 C31.6392746,10.1643414 31.8709648,9.93034138 32.1556127,9.93034138 C32.4409225,9.93034138 32.6712887,10.1643414 32.6712887,10.4541517 Z" id="Stroke-7" fill="#FFFFFF"></path>
                    <path d="M38.2411859,10.4541517 C38.2411859,10.7446345 38.0108197,10.9779621 37.7255099,10.9779621 C37.440862,10.9779621 37.2091718,10.7446345 37.2091718,10.4541517 C37.2091718,10.1643414 37.440862,9.93034138 37.7255099,9.93034138 C38.0108197,9.93034138 38.2411859,10.1643414 38.2411859,10.4541517 Z" id="Stroke-11" fill="#FFFFFF"></path>
                    <path d="M16.8683662,16.2392638 C16.8683662,16.5189879 17.0888028,16.7442466 17.3648451,16.7442466 C17.6382394,16.7442466 17.8613239,16.5189879 17.8613239,16.2392638 C17.8613239,15.9615569 17.6382394,15.7356259 17.3648451,15.7356259 C17.0888028,15.7356259 16.8683662,15.9615569 16.8683662,16.2392638 Z" id="Stroke-15" fill="#FFFFFF"></path>
                    <path d="M9.36167183,16.2392638 C9.36167183,16.5189879 9.58210845,16.7442466 9.8581507,16.7442466 C10.1315451,16.7442466 10.3546296,16.5189879 10.3546296,16.2392638 C10.3546296,15.9615569 10.1315451,15.7356259 9.8581507,15.7356259 C9.58210845,15.7356259 9.36167183,15.9615569 9.36167183,16.2392638 Z" id="Stroke-19" fill="#FFFFFF"></path>
                    <path d="M20.1662437,22.3047724 C18.8528915,24.0328759 16.3777789,25.1961517 13.6113986,25.1961517 C10.8450183,25.1961517 8.36990563,24.0328759 7.05655352,22.3047724" id="Stroke-21" stroke-linecap="round" stroke-linejoin="round"></path>
                </g>
            </g>
        </g>
    </g>
</svg>