<?xml version="1.0" encoding="UTF-8"?>
<svg width="21px" height="28px" viewBox="0 0 21 28" version="1.1" xmlns="http://www.w3.org/2000/svg" xmlns:xlink="http://www.w3.org/1999/xlink">
    <!-- Generator: Sketch 61 (89581) - https://sketch.com -->
    <title>Shape</title>
    <desc>Created with Sketch.</desc>
    <g id="Page-1" stroke="none" stroke-width="1" fill="none" fill-rule="evenodd">
        <g id="03_Detalle-1" transform="translate(-1105.000000, -761.000000)" fill="#6F6F6F" fill-rule="nonzero">
            <g id="Group-13" transform="translate(1105.000000, 757.000000)">
                <g id="noun_Lock_1820740" transform="translate(0.000000, 4.000000)">
                    <path d="M18.5979203,10.4021305 L16.7053726,10.4021305 L16.7053726,6.37549933 C16.7053726,2.87083888 13.9029463,0 10.4818024,0 C7.06065858,0 4.25823224,2.87083888 4.25823224,6.37549933 L4.25823224,10.4021305 L2.36568458,10.4021305 C1.05545927,10.4021305 0,11.4833555 0,12.8255659 L0,25.5765646 C0,26.918775 1.05545927,28 2.36568458,28 L18.6343154,28 C19.9445407,28 21,26.918775 21,25.5765646 L21,12.8255659 C20.9636049,11.4833555 19.9081456,10.4021305 18.5979203,10.4021305 Z M5.35008666,6.37549933 C5.35008666,3.46737683 7.64298094,1.11850866 10.4818024,1.11850866 C13.3206239,1.11850866 15.6135182,3.46737683 15.6135182,6.37549933 L15.6135182,10.4021305 L5.35008666,10.4021305 L5.35008666,6.37549933 Z M19.8717504,25.5765646 C19.8717504,26.2849534 19.2894281,26.8814913 18.5979203,26.8814913 L2.36568458,26.8814913 C1.67417678,26.8814913 1.09185442,26.2849534 1.09185442,25.5765646 L1.09185442,12.8255659 C1.09185442,12.1171771 1.67417678,11.5206391 2.36568458,11.5206391 L18.6343154,11.5206391 C19.3258232,11.5206391 19.9081456,12.1171771 19.9081456,12.8255659 L19.9081456,25.5765646 L19.8717504,25.5765646 Z M10.4818024,15.9573901 C9.4627383,15.9573901 8.66204506,16.8149134 8.66204506,17.8215712 C8.66204506,18.6790945 9.20797227,19.3501997 9.93587522,19.6111851 L9.93587522,22.2583222 L11.0277296,22.2583222 L11.0277296,19.6111851 C11.7556326,19.3874834 12.3015598,18.6790945 12.3015598,17.8215712 C12.3015598,16.7776298 11.5008666,15.9573901 10.4818024,15.9573901 Z M10.4818024,18.6045273 C10.0814558,18.6045273 9.75389948,18.2689747 9.75389948,17.8588549 C9.75389948,17.448735 10.0814558,17.1131824 10.4818024,17.1131824 C10.882149,17.1131824 11.2097054,17.448735 11.2097054,17.8588549 C11.2097054,18.2689747 10.882149,18.6045273 10.4818024,18.6045273 Z" id="Shape"></path>
                </g>
            </g>
        </g>
    </g>
</svg>