<?xml version="1.0" encoding="UTF-8"?>
<svg width="28px" height="26px" viewBox="0 0 28 26" version="1.1" xmlns="http://www.w3.org/2000/svg" xmlns:xlink="http://www.w3.org/1999/xlink">
    <!-- Generator: Sketch 61 (89581) - https://sketch.com -->
    <title>favoritos icon</title>
    <desc>Created with Sketch.</desc>
    <g id="Page-1" stroke="none" stroke-width="1" fill="none" fill-rule="evenodd">
        <g id="01_Home" transform="translate(-1219.000000, -103.000000)" fill="#2C2C2C">
            <g id="Group-29" transform="translate(-1.000000, 0.000000)">
                <g id="favoritos-icon" transform="translate(1220.000000, 103.000000)">
                    <g id="noun_Heart_1742985">
                        <g id="Group" fill-rule="nonzero">
                            <path d="M7.09403422,0.138843881 C5.27566124,0.138843881 3.46595314,0.883169552 2.0805207,2.37018716 C-0.690382,5.3441603 -0.687392811,10.1259251 2.0805207,13.1024478 L13.7156558,25.6295194 C13.7872843,25.7089902 13.8880142,25.7541781 13.9935369,25.7541781 C14.0990596,25.7541781 14.1997896,25.7089902 14.271418,25.6295194 C18.156645,21.4594687 22.0330937,17.2846836 25.9183585,13.114594 C28.6892612,10.1405588 28.6892612,5.35634537 25.9183585,2.38231403 C23.1474558,-0.591709552 18.6504288,-0.591771642 15.8795261,2.38231403 L13.9994396,4.38324687 L12.119391,2.37018716 C10.7339207,0.883173433 8.91240719,0.138843881 7.09403422,0.138843881 Z M7.09403422,0.902836418 C8.7089153,0.902836418 10.3301531,1.56717522 11.5754721,2.90376925 L13.7274991,5.23212746 C13.7991266,5.31158551 13.8998482,5.35676513 14.0053612,5.35676513 C14.1108742,5.35676513 14.2115959,5.31158551 14.2832234,5.23212746 L16.423445,2.92802299 C18.914045,0.254784478 22.8838396,0.254846567 25.3744396,2.92802299 C27.8650396,5.60120716 27.8650396,9.90782388 25.3744396,12.5810119 C21.5835045,16.6498567 17.7903748,20.7239791 13.9994396,24.7927463 L2.62443962,12.5688657 C0.135920703,9.89278657 0.133839622,5.57689522 2.62443962,2.90376925 C3.8697207,1.5671791 5.47915314,0.902836418 7.09403422,0.902836418 L7.09403422,0.902836418 Z" id="Shape"></path>
                        </g>
                    </g>
                </g>
            </g>
        </g>
    </g>
</svg>