<?xml version="1.0" encoding="UTF-8"?>
<svg width="34px" height="34px" viewBox="0 0 34 34" version="1.1" xmlns="http://www.w3.org/2000/svg" xmlns:xlink="http://www.w3.org/1999/xlink">
    <!-- Generator: Sketch 61 (89581) - https://sketch.com -->
    <title>fb</title>
    <desc>Created with Sketch.</desc>
    <g id="Page-1" stroke="none" stroke-width="1" fill="none" fill-rule="evenodd">
        <g id="01_Home" transform="translate(-115.000000, -7001.000000)" fill="#FFFFFF">
            <g id="fb" transform="translate(115.000000, 7001.000000)">
                <path d="M21.7787129,10.727 L20.0327894,10.727 C18.66298,10.727 18.3963788,11.3774737 18.3963788,12.3267895 L18.3963788,14.4285263 L21.6647118,14.4285263 L21.2374318,17.7166842 L18.3963788,17.7166842 L18.3963788,26.1504737 L14.9916035,26.1504737 L14.9916035,17.7166842 L12.1433694,17.7166842 L12.1433694,14.4285263 L14.9916035,14.4285263 L14.9916035,12.0037895 C14.9916035,9.18984211 16.7159835,7.65894737 19.2347812,7.65894737 C20.4412188,7.65894737 21.4771035,7.74752632 21.7787129,7.78689474 L21.7787129,10.727 Z M28.9527082,4.95147368 C25.7723447,1.78142105 21.4600482,1.50990331e-14 16.9610412,1.50990331e-14 C12.4620341,1.50990331e-14 8.14884,1.78142105 4.96847647,4.95147368 C1.78811294,8.12242105 -1.1688428e-13,12.4207368 -1.1688428e-13,16.9042632 C-1.1688428e-13,21.3886842 1.78811294,25.6878947 4.96847647,28.8579474 C8.14884,32.0288947 12.4620341,33.8103158 16.9610412,33.8103158 C21.4600482,33.8103158 25.7723447,32.0288947 28.9527082,28.8579474 C32.1330718,25.6878947 33.9211847,21.3886842 33.9211847,16.9042632 C33.9211847,12.4207368 32.1330718,8.12242105 28.9527082,4.95147368 L28.9527082,4.95147368 Z" id="Fill-15"></path>
            </g>
        </g>
    </g>
</svg>