<?xml version="1.0" encoding="UTF-8"?>
<svg width="21px" height="27px" viewBox="0 0 21 27" version="1.1" xmlns="http://www.w3.org/2000/svg" xmlns:xlink="http://www.w3.org/1999/xlink">
    <!-- Generator: Sketch 61 (89581) - https://sketch.com -->
    <title>icono ahorro</title>
    <desc>Created with Sketch.</desc>
    <g id="Page-1" stroke="none" stroke-width="1" fill="none" fill-rule="evenodd" opacity="0.911574591">
        <g id="03_Detalle-2" transform="translate(-1132.000000, -376.000000)" fill="#706F6F">
            <g id="icono-ahorro" transform="translate(1132.000000, 376.000000)">
                <g id="Group-7">
                    <path d="M1.03829559,5.44380934 L1.03829559,16.00207 C1.03829559,16.0243424 1.03685441,16.0466148 1.03417794,16.0687821 C1.03335441,16.0761362 0.916722059,17.316035 2.02086912,19.1327043 C3.85631029,22.1529222 7.59472206,24.4405681 10.492825,25.8566498 C13.3911338,24.4405681 17.1298544,22.1529222 18.9653985,19.1327043 C20.0696485,17.316035 19.9530162,16.0761362 19.9516779,16.0638444 C19.9497221,16.0449339 19.948075,16.0209805 19.948075,16.00207 L19.948075,5.44380934 C13.9686338,5.31070039 11.4319574,2.87135019 10.4929279,1.5490856 C9.55410441,2.87135019 7.01773676,5.31059533 1.03829559,5.44380934 M10.492825,26.9634397 C10.4178838,26.9634397 10.3429426,26.9467354 10.2734574,26.9133268 C-0.221601471,21.8685292 -0.0406308824,16.5301984 0.00888382353,15.97507 L0.00888382353,4.92419066 C0.00888382353,4.63401946 0.239266176,4.39889883 0.523589706,4.39889883 C4.58688382,4.39889883 6.95494265,3.28433463 8.22595735,2.34942023 C9.58683971,1.34852918 10.0123985,0.334610895 10.0165162,0.324420233 C10.0965015,0.128801556 10.284575,0 10.4922074,0 L10.4953985,0 C10.7042662,0.00126070039 10.8923397,0.129747082 10.9702662,0.327571984 C10.9732515,0.334505837 11.3989132,1.34842412 12.7598985,2.34942023 C14.0312221,3.28433463 16.3995897,4.39889883 20.4627809,4.39889883 C20.7471044,4.39889883 20.9774868,4.63401946 20.9774868,4.92419066 L20.9774868,15.97507 C21.0271044,16.5303035 21.2079721,21.8685292 10.7121926,26.9133268 C10.6427074,26.9467354 10.5676632,26.9634397 10.492825,26.9634397" id="Fill-1"></path>
                    <path d="M10.4928044,24.1559965 C10.4125103,24.1559965 10.3322162,24.1367708 10.2588191,24.0985296 C3.20261324,20.4224323 2.54821618,16.8271249 2.48871618,16.1437202 C2.48737794,16.1283817 2.48676029,16.112728 2.48676029,16.0972844 L2.48676029,7.31797704 C2.48676029,7.04923774 2.68543676,6.82367743 2.94731912,6.79552179 C4.01090735,6.68090311 5.01993676,6.48349844 5.94609853,6.20898093 C6.21951029,6.12819105 6.50476029,6.28840506 6.58392206,6.56691479 C6.66328971,6.84542451 6.50620147,7.13696148 6.23320147,7.21785642 C5.38414265,7.46957626 4.47208382,7.65994202 3.51617206,7.78538171 L3.51617206,16.0717553 C3.56270147,16.5163623 4.114775,19.6490977 10.4929074,23.0397514 C13.1568191,21.6253506 15.122275,20.1178681 16.3368779,18.5569109 C17.2574809,17.3739537 17.4413338,16.5351677 17.4775691,16.2667436 L17.4775691,7.78548677 C14.6640838,7.41872802 12.3183632,6.51585642 10.4927015,5.09704319 C9.90809853,5.55058016 9.26101029,5.95642062 8.56378971,6.30626498 C8.30818676,6.43412101 8.00018676,6.32675136 7.87470147,6.06652179 C7.74942206,5.80618716 7.85442206,5.4914323 8.10961324,5.36336615 C8.86818676,4.98273969 9.55984853,4.53140895 10.1653485,4.02198093 C10.3554809,3.86187198 10.6299221,3.86166187 10.8200544,4.02177082 C12.6263632,5.54017938 15.0576279,6.47341284 18.0463191,6.79552179 C18.3082015,6.82367743 18.5069809,7.04923774 18.5069809,7.31797704 L18.5069809,16.3000471 C18.5069809,16.3205335 18.5057456,16.3409148 18.5033779,16.3612961 C18.3975544,17.2811872 17.5240985,20.5575374 10.7267897,24.0985296 C10.6533926,24.1367708 10.5729956,24.1559965 10.4928044,24.1559965" id="Fill-3"></path>
                    <path d="M11.1251206,19.0092712 L11.1251206,19.8172751 C11.1251206,20.159135 10.8815618,20.4233568 10.5312529,20.4233568 C10.1963853,20.4233568 9.95262059,20.159135 9.95262059,19.8172751 L9.95262059,19.0092712 C8.30823824,18.8538899 6.96835588,18.0303374 6.96835588,17.2689794 C6.96835588,16.9581117 7.19678235,16.7094385 7.54698824,16.7094385 C8.06467941,16.7094385 8.87153235,17.7350183 10.6530324,17.7350183 C11.7341206,17.7350183 12.6020176,17.1600339 12.6020176,16.2432946 C12.6020176,13.896921 7.0749,15.0001389 7.0749,11.6280805 C7.0749,10.2296486 8.2474,9.20396381 9.95262059,9.04858249 L9.95262059,8.2405786 C9.95262059,7.89871868 10.1963853,7.63449689 10.5312529,7.63449689 C10.8815618,7.63449689 11.1251206,7.89871868 11.1251206,8.2405786 L11.1251206,9.04858249 C12.6020176,9.20396381 13.7135765,9.85669144 13.7135765,10.5247576 C13.7135765,10.8511739 13.48515,11.0841934 13.1348412,11.0841934 C12.5715471,11.0841934 11.9168412,10.338384 10.3029294,10.338384 C9.29801765,10.338384 8.52142941,10.8356253 8.52142941,11.565886 C8.52142941,13.7880805 14.0180765,12.7469521 14.0180765,16.1189054 C14.0180765,17.6884774 12.87615,18.807244 11.1251206,19.0092712" id="Fill-5"></path>
                </g>
            </g>
        </g>
    </g>
</svg>