<?xml version="1.0" encoding="UTF-8"?>
<svg width="23px" height="31px" viewBox="0 0 23 31" version="1.1" xmlns="http://www.w3.org/2000/svg" xmlns:xlink="http://www.w3.org/1999/xlink">
    <!-- Generator: Sketch 61 (89581) - https://sketch.com -->
    <title>icono ganancia</title>
    <desc>Created with Sketch.</desc>
    <defs>
        <polygon id="path-1" points="0 30.9170596 22.9804189 30.9170596 22.9804189 0 0 0"></polygon>
    </defs>
    <g id="Page-1" stroke="none" stroke-width="1" fill="none" fill-rule="evenodd" opacity="0.889439174">
        <g id="03_Detalle-3" transform="translate(-1130.000000, -374.000000)">
            <g id="icono-ganancia" transform="translate(1130.000000, 374.000000)">
                <g id="Group-19">
                    <path d="M13.2276212,30.9170596 C9.54596351,30.9170596 6.33974279,28.1994272 5.85943649,24.4874338 C5.60167072,22.4933742 6.15729685,20.5288775 7.42405811,18.9559868 C7.60246351,18.7344702 7.92840045,18.6981325 8.15208063,18.8749967 C8.37565721,19.0517583 8.41222928,19.3746921 8.23382387,19.5962086 C7.14349955,20.950149 6.66516171,22.6408808 6.88708063,24.3569669 C7.33558063,27.8236291 10.5468779,30.2824834 14.0456752,29.8387318 C17.5449905,29.3942616 20.0273329,26.2123477 19.5792473,22.7455828 C19.3618869,21.0663477 18.4975221,19.5713675 17.1452878,18.5358444 C15.79295,17.5003212 14.1150896,17.0487682 12.4202383,17.2639205 C11.5006527,17.3807351 10.6388779,17.6836523 9.85895,18.164255 C9.61589595,18.3138146 9.29658964,18.2401126 9.14543198,17.9994007 C8.99437793,17.7586887 9.06886892,17.4422219 9.31181937,17.2925596 C10.2187653,16.7336358 11.2203014,16.381447 12.2884545,16.245745 C16.3545851,15.7292152 20.0855581,18.5866556 20.6068914,22.6151159 C21.1274995,26.6432682 18.2432788,30.3404801 14.1773554,30.8569073 C13.8582563,30.897351 13.5412293,30.9170596 13.2276212,30.9170596" id="Fill-1" fill="#706F6F"></path>
                    <path d="M6.11301667,15.9292063 C2.62820586,15.9292063 0.000404054054,14.6053421 0.000404054054,12.8497361 L1.03644009,12.8497361 C1.03644009,13.820693 3.12135901,14.9027162 6.11301667,14.9027162 C9.10467432,14.9027162 11.1895932,13.820693 11.1895932,12.8497361 L12.2256293,12.8497361 C12.2256293,14.6053421 9.59782748,15.9292063 6.11301667,15.9292063" id="Fill-3" fill="#706F6F"></path>
                    <path d="M6.11261261,19.1113255 C6.02071622,19.1113255 5.92923423,19.1105043 5.83868468,19.1083487 C2.51052252,19.0382394 0,17.715607 0,16.0318553 L1.03603604,16.0318553 C1.03603604,16.4821765 1.49551802,16.9605209 2.29668468,17.3444281 C3.22973874,17.7913619 4.49577477,18.0533222 5.86178829,18.0821666 C5.9455,18.0841169 6.0287973,18.0848354 6.11261261,18.0848354 L6.11261261,19.1113255 Z" id="Fill-5" fill="#706F6F"></path>
                    <path d="M4.81286396,22.2276775 C1.93755315,21.9286609 0.00565675676,20.7175053 0.00565675676,19.2140053 L1.04169279,19.2140053 C1.04169279,20.2088795 3.0140982,21.0085152 4.92102613,21.2068331 L4.81286396,22.2276775 Z" id="Fill-7" fill="#706F6F"></path>
                    <path d="M6.11301667,25.5008258 C5.71828694,25.5008258 5.32262477,25.4825543 4.93680495,25.4464219 C1.98410225,25.1696801 0.000404054054,23.9540079 0.000404054054,22.4213556 L0.000404054054,12.1091338 L1.03644009,12.1091338 L1.03644009,22.4213556 C1.03644009,23.2218126 2.5318545,24.1898954 5.03429595,24.424551 C5.38779144,24.4575013 5.75071486,24.4743358 6.11301667,24.4743358 L6.11301667,25.5008258 Z" id="Fill-9" fill="#706F6F"></path>
                    <mask id="mask-2" fill="white">
                        <use xlink:href="#path-1"></use>
                    </mask>
                    <g id="Clip-12"></g>
                    <polygon id="Fill-11" fill="#706F6F" mask="url(#mask-2)" points="11.1896036 15.3906788 12.2256396 15.3906788 12.2256396 9.68000662 11.1896036 9.68000662"></polygon>
                    <path d="M6.11301667,7.63147119 C3.12135901,7.63147119 1.03644009,8.71349437 1.03644009,9.68445132 C1.03644009,10.6554083 3.12135901,11.7374315 6.11301667,11.7374315 C9.10467432,11.7374315 11.1895932,10.6554083 11.1895932,9.68445132 C11.1895932,8.71349437 9.10467432,7.63147119 6.11301667,7.63147119 M6.11301667,12.7639215 C2.62820586,12.7639215 0.000404054054,11.4400573 0.000404054054,9.68445132 C0.000404054054,7.92884536 2.62820586,6.60498113 6.11301667,6.60498113 C9.59782748,6.60498113 12.2256293,7.92884536 12.2256293,9.68445132 C12.2256293,11.4400573 9.59782748,12.7639215 6.11301667,12.7639215" id="Fill-13" fill="#706F6F" mask="url(#mask-2)"></path>
                    <path d="M19.7174649,14.2651632 C19.4314153,14.2651632 19.1994468,14.0353321 19.1994468,13.7519182 L19.1994468,10.9911732 C19.1994468,10.7077593 19.4314153,10.4779281 19.7174649,10.4779281 C20.0035144,10.4779281 20.2354829,10.7077593 20.2354829,10.9911732 L20.2354829,13.7519182 C20.2354829,14.0353321 20.0035144,14.2651632 19.7174649,14.2651632" id="Fill-14" fill="#706F6F" mask="url(#mask-2)"></path>
                    <path d="M19.7174649,17.1930722 C19.4314153,17.1930722 19.1994468,16.9632411 19.1994468,16.6798272 L19.1994468,15.8049497 C19.1994468,15.5214331 19.4314153,15.2917046 19.7174649,15.2917046 C20.0035144,15.2917046 20.2354829,15.5214331 20.2354829,15.8049497 L20.2354829,16.6798272 C20.2354829,16.9632411 20.0035144,17.1930722 19.7174649,17.1930722" id="Fill-15" fill="#706F6F" mask="url(#mask-2)"></path>
                    <path d="M14.9355162,14.8942887 C14.6494667,14.8942887 14.4174982,14.6644576 14.4174982,14.3810437 L14.4174982,12.8028152 C14.4174982,12.5194013 14.6494667,12.2895702 14.9355162,12.2895702 C15.2215658,12.2895702 15.4535342,12.5194013 15.4535342,12.8028152 L15.4535342,14.3810437 C15.4535342,14.6644576 15.2215658,14.8942887 14.9355162,14.8942887" id="Fill-16" fill="#706F6F" mask="url(#mask-2)"></path>
                    <path d="M14.9355162,11.2534209 C14.6494667,11.2534209 14.4174982,11.0236924 14.4174982,10.7401758 L14.4174982,6.81970232 L12.6195613,6.82031821 C12.1506514,6.81959967 11.767318,6.57262616 11.5930568,6.15977185 C11.4060523,5.71406987 11.5034396,5.15955993 11.8240928,4.84032152 L16.3047414,0.384122848 C16.5528721,0.136738742 16.884818,1.02649007e-05 17.2389351,1.02649007e-05 L17.2392459,1.02649007e-05 C17.5922234,1.02649007e-05 17.924273,0.135712252 18.1742685,0.382172517 L22.6761559,4.83939768 C22.9848946,5.14590762 23.0699532,5.70277848 22.8791153,6.16377517 C22.7062009,6.57498709 22.3571604,6.81929172 21.9445072,6.81990762 L20.2354622,6.81929172 L20.2354622,8.94227848 C20.2354622,9.22569238 20.0034937,9.45552351 19.7174441,9.45552351 C19.4313946,9.45552351 19.1994261,9.22569238 19.1994261,8.94227848 L19.1994261,5.79239106 L21.9110432,5.79341755 C21.9143586,5.78746391 21.9179847,5.78027848 21.9217144,5.77165596 C21.9560072,5.68871556 21.9470973,5.59048046 21.9316604,5.55342417 L17.4427234,1.10903013 C17.3890568,1.05606325 17.3164306,1.02650033 17.2392459,1.02650033 L17.2392459,1.02650033 C17.1951108,1.02650033 17.1103631,1.03707318 17.0391874,1.10810629 L12.5582279,5.56461291 C12.5390613,5.59006987 12.519273,5.69312947 12.549318,5.76477848 C12.5546018,5.77719901 12.5594712,5.7832553 12.5607144,5.78438444 C12.5634081,5.78633477 12.5816423,5.7937255 12.6201829,5.79382815 L15.4535342,5.79280166 L15.4535342,10.7401758 C15.4535342,11.0236924 15.2215658,11.2534209 14.9355162,11.2534209 L14.9355162,11.2534209 Z" id="Fill-17" fill="#706F6F" mask="url(#mask-2)"></path>
                    <path d="M13.7367396,27.5738533 L13.7367396,28.2115089 C13.7367396,28.4812705 13.5386495,28.6897507 13.2540505,28.6897507 C12.9817802,28.6897507 12.7837937,28.4812705 12.7837937,28.2115089 L12.7837937,27.5738533 C11.4471,27.4512904 10.3580189,26.8013169 10.3580189,26.2005123 C10.3580189,25.9552838 10.5436766,25.7590189 10.8283793,25.7590189 C11.2491135,25.7590189 11.9050279,26.5684063 13.3529919,26.5684063 C14.2317577,26.5684063 14.9371946,26.1146977 14.9371946,25.3912275 C14.9371946,23.5396447 10.4447351,24.4102109 10.4447351,21.749446 C10.4447351,20.6457639 11.3976811,19.8364791 12.7837937,19.7139162 L12.7837937,19.0762606 C12.7837937,18.806499 12.9817802,18.5981215 13.2540505,18.5981215 C13.5386495,18.5981215 13.7367396,18.806499 13.7367396,19.0762606 L13.7367396,19.7139162 C14.9371946,19.8364791 15.8407216,20.3515719 15.8407216,20.8787772 C15.8407216,21.1363235 15.655064,21.3202705 15.3703613,21.3202705 C14.9124333,21.3202705 14.3802216,20.7316811 13.0683928,20.7316811 C12.251582,20.7316811 11.6204288,21.1241083 11.6204288,21.7003798 C11.6204288,23.4538301 16.088127,22.6322275 16.088127,25.293095 C16.088127,26.5315553 15.1599423,27.4144394 13.7367396,27.5738533" id="Fill-18" fill="#706F6F" mask="url(#mask-2)"></path>
                </g>
            </g>
        </g>
    </g>
</svg>