<?xml version="1.0" encoding="UTF-8"?>
<svg width="162px" height="55px" viewBox="0 0 162 55" version="1.1" xmlns="http://www.w3.org/2000/svg" xmlns:xlink="http://www.w3.org/1999/xlink">
    <!-- Generator: Sketch 61 (89581) - https://sketch.com -->
    <title>impuls_logo_negro</title>
    <desc>Created with Sketch.</desc>
    <defs>
        <polygon id="path-1" points="0.131515184 0.122025974 11.2914176 0.122025974 11.2914176 11.2577552 0.131515184 11.2577552"></polygon>
    </defs>
    <g id="Page-1" stroke="none" stroke-width="1" fill="none" fill-rule="evenodd">
        <g id="01_Home" transform="translate(-117.000000, -6861.000000)">
            <g id="impuls_logo_blanco" transform="translate(117.000000, 6861.166667)">
                <g id="Group-52">
                    <path d="M119.798842,38.2942929 C119.798842,38.4075526 119.891966,38.4999487 120.005471,38.4999487 L129.403404,38.4999487 C129.516909,38.4999487 129.609506,38.4075526 129.609506,38.2942929 L129.609506,3.95046818 C129.609506,3.83703312 129.516909,3.74463701 129.403404,3.74463701 L122.357985,3.74463701 C122.244655,3.74463701 122.059287,3.74814351 121.945957,3.75270195 C121.945957,3.75270195 119.798842,3.83913701 119.798842,6.41220195 L119.798842,38.2942929 Z" id="Fill-1" fill="#FFFFFF"></path>
                    <path d="M7.83435163,38.2942929 C7.83435163,38.4075526 7.92747527,38.4999487 8.04045358,38.4999487 L17.4389134,38.4999487 C17.5524189,38.4999487 17.6450154,38.4075526 17.6450154,38.2942929 L17.6450154,13.7632149 C17.6450154,13.6499552 17.5524189,13.5573838 17.4389134,13.5573838 L10.3934948,13.5573838 C10.2799894,13.5573838 10.0942692,13.5608903 9.98129089,13.5654487 C9.98129089,13.5654487 7.83435163,13.6518838 7.83435163,16.2249487 L7.83435163,38.2942929 Z" id="Fill-3" fill="#FFFFFF"></path>
                    <path d="M75.7872195,12.8141649 C69.3054625,12.8141649 63.8988443,17.4027623 62.6490547,23.5023078 C62.5689332,23.8932818 62.5105991,24.2888143 62.4659701,24.6922364 L62.4659701,27.6999312 L62.4120286,50.113087 C62.4120286,50.113087 62.4120286,50.330139 62.6028443,50.330139 L68.9306837,50.330139 C72.2824321,50.330139 72.2427228,47.8820805 72.2427228,47.8820805 L72.2769852,39.4349377 C73.2778009,39.5234766 75.1553844,39.5780026 75.7872195,39.5780026 C83.1940633,39.5780026 89.1972,33.5859312 89.1972,26.1972234 C89.1972,18.8064117 83.1940633,12.8141649 75.7872195,12.8141649 L75.7872195,12.8141649 Z M76.3368247,30.1344896 C76.2925471,30.1358922 76.2512564,30.1344896 76.2069787,30.1344896 C76.1586599,30.1344896 76.113328,30.1364182 76.0655362,30.1344896 L72.2785666,30.1344896 L72.2785666,26.663061 L72.2785666,25.7291065 C72.5099701,23.7677494 74.1779375,22.2443532 76.2069787,22.2443532 C78.3922217,22.2443532 80.1677206,24.0146065 80.1677206,26.1972234 C80.1677206,28.2723662 78.554046,29.957061 76.5146382,30.1166065 L76.3368247,30.1344896 Z" id="Fill-5" fill="#FFFFFF"></path>
                    <path d="M151.381128,25.7489006 C150.52158,24.7504266 148.808807,23.9230695 146.243866,23.2678812 L143.147417,22.4719071 C142.427905,22.2846604 141.974762,22.1126669 141.786582,21.9566279 C141.598753,21.800589 141.505278,21.5821344 141.505278,21.3014396 C141.505278,20.7081409 141.974762,20.4121929 142.913378,20.4121929 C144.588198,20.4121929 147.330601,20.3976409 149.406907,20.3976409 C151.196814,20.3976409 151.313306,18.3680825 151.313306,18.3680825 L151.313306,13.6234461 C149.921196,13.6488682 145.235495,13.6234461 143.288157,13.6234461 C139.7224,13.6234461 137.118627,14.3259721 135.476489,15.7304981 C133.834525,17.1344981 133.013105,19.0229201 133.013105,21.3948877 C133.013105,23.7978877 133.545315,25.5144916 134.608857,26.5443487 C135.671872,27.5742058 137.376562,28.3547513 139.7224,28.8854591 L142.913378,29.5874591 C143.475985,29.7126409 143.85094,29.8527253 144.03912,30.008589 C144.226773,30.1651539 144.320248,30.3992123 144.320248,30.7111149 C144.320248,31.3038877 143.804026,31.6003617 142.772462,31.6003617 C141.137703,31.6003617 136.644224,31.6268357 133.290367,31.6268357 C132.934916,31.6268357 132.934916,31.9946669 132.934916,31.9946669 L132.934916,38.4823812 C136.317237,38.5947643 140.153052,38.4823812 142.302276,38.4823812 C149.21574,38.4823812 152.671154,35.8921344 152.671154,30.7111149 C152.671154,28.4013877 152.24138,26.74755 151.381128,25.7489006" id="Fill-7" fill="#FFFFFF"></path>
                    <g id="Group-11" transform="translate(7.028200, 0.053299)">
                        <mask id="mask-2" fill="white">
                            <use xlink:href="#path-1"></use>
                        </mask>
                        <g id="Clip-10"></g>
                        <path d="M5.71243275,0.122008442 C2.63091866,0.122008442 0.131515184,2.61407338 0.131515184,5.68944351 C0.131515184,8.76569026 2.63091866,11.2577552 5.71243275,11.2577552 C8.79394685,11.2577552 11.2914176,8.76569026 11.2914176,5.68944351 C11.2914176,2.61407338 8.79394685,0.122008442 5.71243275,0.122008442" id="Fill-9" fill="#FFFFFF" mask="url(#mask-2)"></path>
                    </g>
                    <path d="M116.109213,13.6234987 L107.636894,13.5931675 C107.470501,13.5931675 107.324139,13.6199922 107.196226,13.6673299 C107.068313,13.7139662 106.958673,13.7809403 106.865198,13.8614143 C106.629577,14.062687 106.492352,14.3477649 106.412054,14.6121545 C106.299428,14.9822649 106.298549,15.3108234 106.298549,15.3108234 L106.298549,16.1884987 L106.298549,28.454213 C106.298549,29.4035961 105.662146,30.2765377 104.729503,30.4643104 C103.456872,30.7208104 102.337631,29.757226 102.337631,28.5306545 L102.337631,18.8644792 L102.337631,16.1884987 L102.337631,15.3108234 C102.337631,15.3108234 102.334293,13.5931675 100.999287,13.5931675 L92.5274948,13.6234987 L92.5274948,16.1884987 L92.5274948,27.3650961 C92.5274948,32.5424338 95.8824059,36.9274792 100.537885,38.4994403 C101.725827,38.9014597 102.995471,39.1297325 104.317475,39.1297325 C105.642291,39.1297325 106.908948,38.9014597 108.09689,38.4994403 C112.752369,36.9274792 116.109213,32.5424338 116.109213,27.3650961 L116.109213,16.1884987 L116.109213,13.6234987 Z" id="Fill-12" fill="#FFFFFF"></path>
                    <path d="M51.5421625,13.6230779 C50.5046245,13.2782143 49.3997915,13.0830779 48.2450584,13.0830779 C47.0467503,13.0830779 45.8999239,13.2966234 44.8254879,13.6677857 C42.9503642,14.317539 41.3168349,15.4787143 40.1009564,16.9940455 C38.8560866,15.4448766 37.1807395,14.2640649 35.2532557,13.6230779 C34.2605226,13.2927662 33.2004944,13.1048182 32.0981213,13.0895649 L32.0981213,13.089039 C32.0503295,13.088513 32.0030649,13.0830779 31.954746,13.0830779 C30.8007156,13.0830779 29.6937742,13.2782143 28.658169,13.6230779 C24.5095985,15.0018312 21.5143555,18.8987727 21.5143555,23.5013961 L21.5143555,23.5406688 L21.5317503,23.5238377 C21.521208,23.5899351 21.5143555,23.6555065 21.5143555,23.7070519 L21.5143555,38.2947662 C21.5143555,38.4076753 21.6067764,38.5004221 21.7204575,38.5004221 L31.1197959,38.5004221 C31.2333013,38.5004221 31.3264249,38.4076753 31.3264249,38.2947662 L31.3264249,34.0946883 L31.3264249,33.6828506 L31.3264249,23.955487 C31.3264249,23.7086299 31.3250193,23.4596688 31.3250193,23.2112338 C31.3250193,22.8313052 31.3014748,22.4447143 31.4877221,22.0965195 C31.6446267,21.8112662 31.8934249,21.5582727 32.1778913,21.4048636 C32.465169,21.2528571 32.8002384,21.1672987 33.1277525,21.1672987 C33.8238957,21.1672987 34.623002,21.593513 34.8904249,22.2667597 C35.0685898,22.7194481 35.0262449,23.4949091 35.0262449,23.4949091 C35.0202709,23.6081688 35.0148241,23.793487 35.0148241,23.9067468 L35.0148241,33.258039 L35.0148241,33.6698766 L35.0148241,38.2947662 C35.0148241,38.4076753 35.1079477,38.5004221 35.2214531,38.5004221 L42.7129868,38.5030519 L43.1257178,38.5030519 L43.2072449,38.5030519 C44.9215985,38.5030519 44.8390171,37.2187987 44.8390171,37.2187987 C44.8314618,37.1058896 44.8254879,36.9205714 44.8254879,36.8073117 L44.8254879,23.1442597 C44.8254879,22.0505844 45.7108653,21.1672987 46.8065616,21.1672987 C47.5504965,21.1672987 48.2789694,21.6119221 48.5557048,22.3109416 C48.735451,22.7666104 48.7047026,23.4949091 48.7047026,23.4949091 C48.6996072,23.6081688 48.6957416,23.793487 48.6957416,23.9067468 L48.6957416,33.6907403 L48.6957416,34.1025779 L48.6957416,38.2947662 C48.6957416,38.4076753 48.7883382,38.5004221 48.9018436,38.5004221 L58.298195,38.5004221 C58.4117004,38.5004221 58.5048241,38.4076753 58.5048241,38.2947662 L58.5048241,25.5984545 L58.5048241,25.1866169 L58.5048241,21.7958377 C58.1911907,17.9360649 55.1096766,14.8070455 51.5421625,13.6230779" id="Fill-14" fill="#FFFFFF"></path>
                    <path d="M83.2055369,47.293726 L78.4277668,47.293726 C78.4690575,47.840213 78.6468709,48.2750182 78.96191,48.5983169 C79.2765976,48.9172325 79.6805434,49.0762519 80.1732202,49.0762519 C80.5567842,49.0762519 80.873756,48.9852584 81.1248384,48.8034468 C81.3713525,48.6211091 81.6521291,48.2837844 81.966641,47.7925247 L83.267385,48.5164403 C83.0665542,48.8576221 82.8539512,49.1504143 82.6304544,49.3937649 C82.4069577,49.6376416 82.1674718,49.8378623 81.9119967,49.9947779 C81.6566974,50.1523948 81.3806649,50.2672325 81.0835477,50.3401675 C80.7871334,50.4127519 80.4655933,50.4495701 80.1185759,50.4495701 C79.1237343,50.4495701 78.3251551,50.1306545 77.7226627,49.493174 C77.1206974,48.8507844 76.8193633,47.9995831 76.8193633,46.9385182 C76.8193633,45.8867455 77.1112093,45.0355442 77.6952527,44.383687 C78.2842158,43.7418234 79.0645217,43.4209792 80.036346,43.4209792 C81.0173069,43.4209792 81.7935716,43.7328818 82.3635586,44.3570377 C82.92968,44.9759338 83.2125651,45.8344987 83.2125651,46.9320312 L83.2055369,47.293726 Z M81.624192,46.0366481 C81.4100076,45.2173558 80.8918536,44.8074468 80.0707842,44.8074468 C79.8836584,44.8074468 79.7077777,44.8358494 79.5434935,44.8930052 C79.3792093,44.950161 79.2298601,45.031687 79.0952701,45.1389857 C78.9610315,45.2457584 78.8454176,45.3744468 78.7498341,45.5245247 C78.6537234,45.6751286 78.5806302,45.8458948 78.5309056,46.0366481 L81.624192,46.0366481 Z" id="Fill-16" fill="#FFFFFF"></path>
                    <path d="M85.506341,43.6053857 L87.0534234,43.6053857 L87.0534234,44.220074 C87.5916078,43.6874377 88.1984928,43.4209442 88.8742542,43.4209442 C89.6498161,43.4209442 90.2542412,43.6649961 90.6880568,44.1518727 C91.061957,44.5661649 91.2492586,45.2423922 91.2492586,46.1805545 L91.2492586,50.2577299 L89.7021761,50.2577299 L89.7021761,46.5426 C89.7021761,45.8868857 89.6109852,45.4336714 89.4287792,45.1833078 C89.2506143,44.9283857 88.9264386,44.800574 88.4569549,44.800574 C87.9451262,44.800574 87.5824711,44.969061 87.3681111,45.3060351 C87.1583193,45.6384506 87.0534234,46.219126 87.0534234,47.0478857 L87.0534234,50.2577299 L85.506341,50.2577299 L85.506341,43.6053857 Z" id="Fill-18" fill="#FFFFFF"></path>
                    <polygon id="Fill-20" fill="#FFFFFF" points="100.963741 48.8100039 104.927119 48.8100039 104.927119 50.2581857 97.9106915 50.2581857 102.229872 45.0399974 98.8283987 45.0399974 98.8283987 43.6051403 105.276069 43.6051403"></polygon>
                    <path d="M111.902923,43.6053857 L113.450006,43.6053857 L113.450006,50.2577299 L111.902923,50.2577299 L111.902923,49.5613403 C111.268277,50.153061 110.586014,50.4490091 109.856136,50.4490091 C108.934387,50.4490091 108.172355,50.1167688 107.569862,49.452113 C106.97229,48.7737818 106.673416,47.926613 106.673416,46.9111325 C106.673416,45.914061 106.97229,45.0830221 107.569862,44.4181909 C108.167611,43.7535351 108.916114,43.4209442 109.815197,43.4209442 C110.590407,43.4209442 111.287077,43.7395091 111.902923,44.3773403 L111.902923,43.6053857 Z M108.247908,46.9111325 C108.247908,47.548613 108.418693,48.0677494 108.760615,48.4687169 C109.112201,48.8737169 109.555505,49.0763922 110.088593,49.0763922 C110.658756,49.0763922 111.119806,48.8807299 111.471743,48.4890545 C111.822802,48.0837039 111.998507,47.5689506 111.998507,46.9454961 C111.998507,46.3215156 111.822802,45.8072883 111.471743,45.4019377 C111.119806,45.0053532 110.663676,44.807587 110.10265,44.807587 C109.573251,44.807587 109.13065,45.0079831 108.774672,45.4087753 C108.423086,45.8137753 108.247908,46.3150286 108.247908,46.9111325 L108.247908,46.9111325 Z" id="Fill-22" fill="#FFFFFF"></path>
                    <path d="M117.550714,53.877974 L116.01066,53.877974 L116.01066,43.6051753 L117.550714,43.6051753 L117.550714,44.3294416 C118.157599,43.7238701 118.846714,43.4207338 119.617532,43.4207338 C120.535063,43.4207338 121.290419,43.7582338 121.883423,44.4318312 C122.486443,45.1010455 122.787074,45.9457597 122.787074,46.9656234 C122.787074,47.9633961 122.488376,48.7940844 121.890276,49.4587403 C121.297272,50.119013 120.548944,50.4493247 119.645293,50.4493247 C118.864987,50.4493247 118.16656,50.1374221 117.550714,49.5132662 L117.550714,53.877974 Z M121.213285,46.9726364 C121.213285,46.3353312 121.039337,45.8160195 120.692495,45.4155779 C120.340909,45.0102273 119.898133,44.8075519 119.365044,44.8075519 C118.798922,44.8075519 118.340332,45.0032143 117.988747,45.3952403 C117.637864,45.7867403 117.461456,46.3009675 117.461456,46.9384481 C117.461456,47.5624286 117.637864,48.0770065 117.988747,48.4820065 C118.33594,48.8784156 118.791894,49.0761818 119.358016,49.0761818 C119.89128,49.0761818 120.332475,48.875961 120.678966,48.4751688 C121.034944,48.0745519 121.213285,47.5738247 121.213285,46.9726364 L121.213285,46.9726364 Z" id="Fill-24" fill="#FFFFFF"></path>
                    <path d="M129.947527,43.6053857 L131.494609,43.6053857 L131.494609,50.2577299 L129.947527,50.2577299 L129.947527,49.5613403 C129.313408,50.153061 128.630618,50.4490091 127.900739,50.4490091 C126.978991,50.4490091 126.216959,50.1167688 125.614818,49.452113 C125.016542,48.7737818 124.718019,47.926613 124.718019,46.9111325 C124.718019,45.914061 125.016542,45.0830221 125.614818,44.4181909 C126.21239,43.7535351 126.961245,43.4209442 127.8598,43.4209442 C128.635011,43.4209442 129.331681,43.7395091 129.947527,44.3773403 L129.947527,43.6053857 Z M126.292512,46.9111325 C126.292512,47.548613 126.463824,48.0677494 126.805746,48.4687169 C127.157332,48.8737169 127.600108,49.0763922 128.133373,49.0763922 C128.703887,49.0763922 129.164937,48.8807299 129.515995,48.4890545 C129.867405,48.0837039 130.043813,47.5689506 130.043813,46.9454961 C130.043813,46.3215156 129.867405,45.8072883 129.515995,45.4019377 C129.164937,45.0053532 128.70828,44.807587 128.147781,44.807587 C127.617854,44.807587 127.175429,45.0079831 126.819275,45.4087753 C126.46769,45.8137753 126.292512,46.3150286 126.292512,46.9111325 L126.292512,46.9111325 Z" id="Fill-26" fill="#FFFFFF"></path>
                    <polygon id="Fill-28" fill="#FFFFFF" points="135.643004 45.0398396 135.643004 50.2580279 134.10295 50.2580279 134.10295 45.0398396 133.445813 45.0398396 133.445813 43.6055084 134.10295 43.6055084 134.10295 41.1670929 135.643004 41.1670929 135.643004 43.6055084 136.840961 43.6055084 136.840961 45.0398396"></polygon>
                    <path d="M138.286134,46.8839922 C138.286134,45.923213 138.630692,45.1058494 139.319807,44.431726 C140.008922,43.7579532 140.847913,43.4211545 141.838713,43.4211545 C142.833555,43.4211545 143.677993,43.7605831 144.371501,44.4385636 C145.056048,45.1172455 145.398321,45.9505636 145.398321,46.9386935 C145.398321,47.9357649 145.053236,48.7715377 144.364648,49.4449597 C143.670614,50.1148753 142.819674,50.4492195 141.811303,50.4492195 C140.812069,50.4492195 139.974484,50.1078623 139.299074,49.4246221 C138.623839,48.7510247 138.286134,47.9038558 138.286134,46.8839922 M139.860627,46.9113429 C139.860627,47.5759987 140.03844,48.1021481 140.394243,48.4890896 C140.759182,48.8807649 141.240614,49.0764273 141.838713,49.0764273 C142.44103,49.0764273 142.92211,48.8826935 143.282657,48.4955766 C143.643555,48.109161 143.823828,47.5919532 143.823828,46.9457065 C143.823828,46.2987584 143.643555,45.7820766 143.282657,45.3949597 C142.917542,45.0034597 142.43611,44.8072714 141.838713,44.8072714 C141.250102,44.8072714 140.773238,45.0034597 140.408299,45.3949597 C140.042833,45.7864597 139.860627,46.2917455 139.860627,46.9113429" id="Fill-30" fill="#FFFFFF"></path>
                    <path d="M151.518407,44.7391753 L150.245424,45.4152273 C150.044066,45.0054935 149.795619,44.8008896 149.499029,44.8008896 C149.357587,44.8008896 149.236175,44.847526 149.136374,44.9407987 C149.035344,45.0344221 148.985619,45.1534675 148.985619,45.299513 C148.985619,45.5544351 149.281858,45.8074286 149.875389,46.0577922 C150.69189,46.4080909 151.241671,46.7313896 151.524908,47.027513 C151.807617,47.3236364 151.949587,47.7216234 151.949587,48.2223506 C151.949587,48.8647403 151.712209,49.4019351 151.237103,49.834461 C150.77658,50.2443701 150.219947,50.4491494 149.567203,50.4491494 C148.449368,50.4491494 147.657114,49.9051169 147.192198,48.8167013 L148.506648,48.209026 C148.688854,48.5279416 148.828188,48.7302662 148.923771,48.8167013 C149.111073,48.9899221 149.334569,49.0763571 149.59514,49.0763571 C150.114875,49.0763571 150.37527,48.8400195 150.37527,48.3661169 C150.37527,48.0927857 150.174791,47.8378636 149.772251,47.6008247 C149.617454,47.5233312 149.462131,47.4488182 149.307335,47.3758831 C149.151836,47.3027727 148.99458,47.2277338 148.834864,47.1502403 C148.387695,46.9316104 148.073008,46.7131558 147.890274,46.494526 C147.657114,46.2168117 147.541149,45.8595 147.541149,45.4222403 C147.541149,44.8440195 147.739871,44.3660844 148.136789,43.9880844 C148.542491,43.6099091 149.035344,43.4210844 149.614995,43.4210844 C150.468394,43.4210844 151.103216,43.8602727 151.518407,44.7391753" id="Fill-32" fill="#FFFFFF"></path>
                    <path d="M6.38659523,47.293726 L1.60882516,47.293726 C1.64994013,47.840213 1.82775358,48.2750182 2.14244121,48.5983169 C2.45765597,48.9172325 2.86142603,49.0762519 3.35445423,49.0762519 C3.73766681,49.0762519 4.05446291,48.9852584 4.30589675,48.8034468 C4.55188373,48.6211091 4.8326603,48.2837844 5.14787505,47.7925247 L6.44826768,48.5164403 C6.24726117,48.8576221 6.03518525,49.1504143 5.8115128,49.3937649 C5.58801605,49.6376416 5.34853015,49.8378623 5.09252798,49.9947779 C4.83705293,50.1523948 4.5611961,50.2672325 4.26443037,50.3401675 C3.96784035,50.4127519 3.64612451,50.4495701 3.29963427,50.4495701 C2.30426551,50.4495701 1.50621345,50.1306545 0.903721041,49.493174 C0.301228633,48.8507844 7.02819957e-05,47.9995831 7.02819957e-05,46.9385182 C7.02819957e-05,45.8867455 0.292267679,45.0355442 0.876311063,44.383687 C1.46474707,43.7418234 2.24558004,43.4209792 3.21740434,43.4209792 C4.19836529,43.4209792 4.97392711,43.7328818 5.54461692,44.3570377 C6.11021128,44.9759338 6.39362343,45.8344987 6.39362343,46.9320312 L6.38659523,47.293726 Z M4.80525033,46.0366481 C4.59071453,45.2173558 4.07291193,44.8074468 3.25184252,44.8074468 C3.06401388,44.8074468 2.88883601,44.8358494 2.72455184,44.8930052 C2.56026768,44.950161 2.41091844,45.031687 2.27632842,45.1389857 C2.14138698,45.2457584 2.02647592,45.3744468 1.93036529,45.5245247 C1.83478178,45.6751286 1.7615128,45.8458948 1.71126117,46.0366481 L4.80525033,46.0366481 Z" id="Fill-34" fill="#FFFFFF"></path>
                    <polygon id="Fill-36" fill="#FFFFFF" points="10.4313241 46.6585071 8.03541085 43.6055786 9.86977093 43.6055786 11.3553566 45.5450201 12.8680009 43.6055786 14.7571809 43.6055786 12.2929184 46.6585071 15.1474217 50.2579227 13.3132373 50.2579227 11.3553566 47.7719942 9.34985987 50.2579227 7.46735662 50.2579227"></polygon>
                    <path d="M18.2888863,53.877974 L16.7488321,53.877974 L16.7488321,43.6051753 L18.2888863,43.6051753 L18.2888863,44.3294416 C18.8957714,43.7238701 19.5848863,43.4207338 20.3562312,43.4207338 C21.2732356,43.4207338 22.0280642,43.7582338 22.6215957,44.4318312 C23.2240881,45.1010455 23.5252464,45.9457597 23.5252464,46.9656234 C23.5252464,47.9633961 23.2265479,48.7940844 22.6286239,49.4587403 C22.0350924,50.119013 21.2871163,50.4493247 20.3834655,50.4493247 C19.6033354,50.4493247 18.9047323,50.1374221 18.2888863,49.5132662 L18.2888863,53.877974 Z M21.9509297,46.9726364 C21.9509297,46.3353312 21.7771575,45.8160195 21.4304915,45.4155779 C21.0790816,45.0102273 20.6364807,44.8075519 20.1026889,44.8075519 C19.5370946,44.8075519 19.0779774,45.0032143 18.7270946,45.3952403 C18.3755089,45.7867403 18.1998039,46.3009675 18.1998039,46.9384481 C18.1998039,47.5624286 18.3755089,48.0770065 18.7270946,48.4820065 C19.0735848,48.8784156 19.5300664,49.0761818 20.0956607,49.0761818 C20.6294525,49.0761818 21.0701206,48.875961 21.417138,48.4751688 C21.7725892,48.0745519 21.9509297,47.5738247 21.9509297,46.9726364 L21.9509297,46.9726364 Z" id="Fill-38" fill="#FFFFFF"></path>
                    <path d="M31.7864206,47.293726 L27.0084748,47.293726 C27.0497655,47.840213 27.227579,48.2750182 27.5427937,48.5983169 C27.8574813,48.9172325 28.2612514,49.0762519 28.7541039,49.0762519 C29.1374922,49.0762519 29.4542883,48.9852584 29.7057221,48.8034468 C29.9517091,48.6211091 30.2324857,48.2837844 30.5475247,47.7925247 L31.8480931,48.5164403 C31.6469108,48.8576221 31.4348349,49.1504143 31.2113382,49.3937649 C30.9878414,49.6376416 30.7481798,49.8378623 30.4923534,49.9947779 C30.2368783,50.1523948 29.9610215,50.2672325 29.6642557,50.3401675 C29.36749,50.4127519 29.0459499,50.4495701 28.6994597,50.4495701 C27.704618,50.4495701 26.9060388,50.1306545 26.3035464,49.493174 C25.7015811,48.8507844 25.39972,47.9995831 25.39972,46.9385182 C25.39972,45.8867455 25.6920931,45.0355442 26.2761364,44.383687 C26.8645725,43.7418234 27.6454054,43.4209792 28.6172297,43.4209792 C29.598015,43.4209792 30.3737525,43.7328818 30.9444423,44.3570377 C31.5100367,44.9759338 31.7934488,45.8344987 31.7934488,46.9320312 L31.7864206,47.293726 Z M30.2050757,46.0366481 C29.9903642,45.2173558 29.4727373,44.8074468 28.6516679,44.8074468 C28.4643664,44.8074468 28.2886614,44.8358494 28.1243772,44.8930052 C27.9600931,44.950161 27.8107438,45.031687 27.6761538,45.1389857 C27.5412124,45.2457584 27.4263013,45.3744468 27.3301907,45.5245247 C27.2346072,45.6751286 27.1613382,45.8458948 27.1110866,46.0366481 L30.2050757,46.0366481 Z" id="Fill-40" fill="#FFFFFF"></path>
                    <path d="M34.0311221,43.6053857 L35.5711764,43.6053857 L35.5711764,44.1997364 C35.8538857,43.9034377 36.1053195,43.7012883 36.3238965,43.592061 C36.547569,43.4781 36.8123564,43.4209442 37.1180831,43.4209442 C37.524313,43.4209442 37.9486406,43.553139 38.3912414,43.8170026 L37.6861373,45.2239831 C37.394467,45.0148208 37.1091221,44.9099766 36.8308054,44.9099766 C35.9907599,44.9099766 35.5711764,45.543074 35.5711764,46.8087429 L35.5711764,50.2577299 L34.0311221,50.2577299 L34.0311221,43.6053857 Z" id="Fill-42" fill="#FFFFFF"></path>
                    <polygon id="Fill-44" fill="#FFFFFF" points="41.9296939 45.0398396 41.9296939 50.2580279 40.3896397 50.2580279 40.3896397 45.0398396 39.732503 45.0398396 39.732503 43.6055084 40.3896397 43.6055084 40.3896397 41.1670929 41.9296939 41.1670929 41.9296939 43.6055084 43.1276505 43.6055084 43.1276505 45.0398396"></polygon>
                    <path d="M44.5162822,46.8839922 C44.5162822,45.923213 44.8608397,45.1058494 45.5499547,44.431726 C46.2390696,43.7579532 47.0785881,43.4211545 48.0688614,43.4211545 C49.0635273,43.4211545 49.9081412,43.7605831 50.6016488,44.4385636 C51.2861954,45.1172455 51.6282931,45.9505636 51.6282931,46.9386935 C51.6282931,47.9357649 51.2837356,48.7715377 50.5946206,49.4449597 C49.901113,50.1148753 49.0501738,50.4492195 48.0414514,50.4492195 C47.0420414,50.4492195 46.2046315,50.1078623 45.5295729,49.4246221 C44.8538115,48.7510247 44.5162822,47.9038558 44.5162822,46.8839922 M46.0905989,46.9113429 C46.0905989,47.5759987 46.2684124,48.1021481 46.6243907,48.4890896 C46.989857,48.8807649 47.4707616,49.0764273 48.0688614,49.0764273 C48.6711781,49.0764273 49.1527855,48.8826935 49.5131564,48.4955766 C49.873703,48.109161 50.0539764,47.5919532 50.0539764,46.9457065 C50.0539764,46.2987584 49.873703,45.7820766 49.5131564,45.3949597 C49.14769,45.0034597 48.6667855,44.8072714 48.0688614,44.8072714 C47.4802497,44.8072714 47.0033863,45.0034597 46.6384471,45.3949597 C46.2729807,45.7864597 46.0905989,46.2917455 46.0905989,46.9113429" id="Fill-46" fill="#FFFFFF"></path>
                    <path d="M57.6926102,44.7391753 L56.4194518,45.4152273 C56.2182696,45.0054935 55.9698228,44.8008896 55.673057,44.8008896 C55.5317902,44.8008896 55.4107295,44.847526 55.3105777,44.9407987 C55.2100744,45.0344221 55.1598228,45.1534675 55.1598228,45.299513 C55.1598228,45.5544351 55.4565885,45.8074286 56.05012,46.0577922 C56.866621,46.4080909 57.4162262,46.7313896 57.6991113,47.027513 C57.9823477,47.3236364 58.1237902,47.7216234 58.1237902,48.2223506 C58.1237902,48.8647403 57.8864128,49.4019351 57.4118336,49.834461 C56.9507837,50.2443701 56.3941503,50.4491494 55.7417577,50.4491494 C54.6235711,50.4491494 53.8318445,49.9051169 53.366402,48.8167013 L54.680851,48.209026 C54.863057,48.5279416 55.0023911,48.7302662 55.0985017,48.8167013 C55.2852761,48.9899221 55.5087729,49.0763571 55.7693434,49.0763571 C56.2896059,49.0763571 56.5494735,48.8400195 56.5494735,48.3661169 C56.5494735,48.0927857 56.3488184,47.8378636 55.9469811,47.6008247 C55.792185,47.5233312 55.6368618,47.4488182 55.4815386,47.3758831 C55.3265668,47.3027727 55.1687837,47.2277338 55.0094193,47.1502403 C54.5624258,46.9316104 54.2472111,46.7131558 54.065005,46.494526 C53.8318445,46.2168117 53.7153521,45.8595 53.7153521,45.4222403 C53.7153521,44.8440195 53.9140744,44.3660844 54.3108163,43.9880844 C54.7172219,43.6099091 55.2100744,43.4210844 55.7895495,43.4210844 C56.6431243,43.4210844 57.2774193,43.8602727 57.6926102,44.7391753" id="Fill-48" fill="#FFFFFF"></path>
                    <path d="M156.3611,16.3823903 C156.3611,16.0028123 156.433139,15.644624 156.577568,15.3083513 C156.722525,14.9719032 156.919139,14.6792864 157.169694,14.4297994 C157.419547,14.1804877 157.711744,13.9837734 158.046462,13.8396565 C158.381004,13.6955396 158.738388,13.6234812 159.119317,13.6234812 C159.499718,13.6234812 159.858683,13.6955396 160.195861,13.8396565 C160.532863,13.9837734 160.826115,14.1804877 161.076143,14.4297994 C161.326171,14.6792864 161.523312,14.9719032 161.667566,15.3083513 C161.811996,15.644624 161.884738,16.0028123 161.884738,16.3823903 C161.884738,16.7624942 161.811996,17.1192799 161.667566,17.4530981 C161.523312,17.7874422 161.326171,18.0790071 161.076143,18.3279682 C160.826115,18.5778058 160.532863,18.7741695 160.195861,18.918637 C159.858683,19.0627539 159.499718,19.1348123 159.119317,19.1348123 C158.738388,19.1348123 158.381004,19.0627539 158.046462,18.918637 C157.711744,18.7741695 157.419547,18.5778058 157.169694,18.3279682 C156.919139,18.0790071 156.722525,17.7874422 156.577568,17.4530981 C156.433139,17.1192799 156.3611,16.7624942 156.3611,16.3823903 L156.3611,16.3823903 Z M156.897879,16.3823903 C156.897879,16.6890331 156.956037,16.9760396 157.073056,17.2439357 C157.190076,17.5116565 157.34944,17.7462409 157.550974,17.9473383 C157.752683,18.148611 157.988128,18.3076305 158.256078,18.4243968 C158.524555,18.541163 158.812184,18.5991955 159.119317,18.5991955 C159.426098,18.5991955 159.71443,18.541163 159.982731,18.4243968 C160.250681,18.3076305 160.485774,18.148611 160.687308,17.9473383 C160.889369,17.7462409 161.048733,17.5116565 161.165753,17.2439357 C161.282772,16.9760396 161.341106,16.6890331 161.341106,16.3823903 C161.341106,16.0759227 161.282772,15.7887409 161.165753,15.5213708 C161.048733,15.25365 160.889369,15.0192409 160.687308,14.8174422 C160.485774,14.6161695 160.250681,14.4573253 159.982731,14.3409097 C159.71443,14.2236175 159.426098,14.1655851 159.119317,14.1655851 C158.812184,14.1655851 158.524555,14.2236175 158.256078,14.3409097 C157.988128,14.4573253 157.752683,14.6161695 157.550974,14.8174422 C157.34944,15.0192409 157.190076,15.25365 157.073056,15.5213708 C156.956037,15.7887409 156.897879,16.0759227 156.897879,16.3823903 L156.897879,16.3823903 Z M160.680807,17.91315 L159.504813,17.91315 L158.789167,16.8768058 L158.789167,17.91315 L157.846685,17.91315 L157.846685,14.8104292 L159.202074,14.8104292 C159.531696,14.8104292 159.800525,14.8989682 160.006627,15.0751695 C160.213256,15.2511955 160.315868,15.490163 160.315868,15.7922474 C160.315868,16.2452864 160.096236,16.5357994 159.655568,16.664137 L160.680807,17.91315 Z M158.789167,16.1558708 L158.892306,16.1558708 C159.199438,16.1558708 159.353356,16.0485721 159.353356,15.8334487 C159.353356,15.6227084 159.199438,15.5173383 158.892306,15.5173383 L158.789167,15.5173383 L158.789167,16.1558708 Z" id="Fill-50" fill="#FFFFFF"></path>
                </g>
            </g>
        </g>
    </g>
</svg>