<?xml version="1.0" encoding="UTF-8"?>
<svg width="175px" height="59px" viewBox="0 0 175 59" version="1.1" xmlns="http://www.w3.org/2000/svg" xmlns:xlink="http://www.w3.org/1999/xlink">
    <!-- Generator: Sketch 61 (89581) - https://sketch.com -->
    <title>impuls_logo_negro</title>
    <desc>Created with Sketch.</desc>
    <defs>
        <polygon id="path-1" points="0.142068872 0.131818182 12.197519 0.131818182 12.197519 12.1611553 0.142068872 12.1611553"></polygon>
    </defs>
    <g id="Page-1" stroke="none" stroke-width="1" fill="none" fill-rule="evenodd">
        <g id="01_Home" transform="translate(-116.000000, -89.000000)">
            <g id="impuls_logo_negro" transform="translate(116.000000, 89.604483)">
                <g id="Group-52">
                    <path d="M129.412329,41.3672917 C129.412329,41.4896402 129.512926,41.5894508 129.63554,41.5894508 L139.787627,41.5894508 C139.910241,41.5894508 140.010268,41.4896402 140.010268,41.3672917 L140.010268,4.26748106 C140.010268,4.14494318 139.910241,4.04513258 139.787627,4.04513258 L132.176836,4.04513258 C132.054412,4.04513258 131.854168,4.04892045 131.731743,4.0538447 C131.731743,4.0538447 129.412329,4.14721591 129.412329,6.92676136 L129.412329,41.3672917 Z" id="Fill-1" fill="#000000"></path>
                    <path d="M8.46303416,41.3672917 C8.46303416,41.4896402 8.56363069,41.5894508 8.68567516,41.5894508 L18.8383324,41.5894508 C18.9609463,41.5894508 19.0609734,41.4896402 19.0609734,41.3672917 L19.0609734,14.8676705 C19.0609734,14.745322 18.9609463,14.645322 18.8383324,14.645322 L11.2275407,14.645322 C11.1049268,14.645322 10.9043031,14.6491098 10.7822587,14.6540341 C10.7822587,14.6540341 8.46303416,14.7474053 8.46303416,17.5269508 L8.46303416,41.3672917 Z" id="Fill-3" fill="#000000"></path>
                    <path d="M81.86891,13.8424621 C74.8670119,13.8424621 69.0265293,18.7992803 67.6764479,25.3882955 C67.589897,25.8106439 67.5268818,26.2379167 67.4786714,26.6737121 L67.4786714,29.9227652 L67.4204013,54.1345076 C67.4204013,54.1345076 67.4204013,54.3689773 67.6265293,54.3689773 L74.4621584,54.3689773 C78.0828742,54.3689773 78.0399783,51.7244697 78.0399783,51.7244697 L78.0769902,42.5994697 C79.1581182,42.6951136 81.186372,42.7540152 81.86891,42.7540152 C89.8701302,42.7540152 96.355,36.2810985 96.355,28.2994697 C96.355,20.3155682 89.8701302,13.8424621 81.86891,13.8424621 L81.86891,13.8424621 Z M82.4626193,32.5526894 C82.4147885,32.5542045 82.3701844,32.5526894 82.3223536,32.5526894 C82.2701573,32.5526894 82.2211876,32.5547727 82.1695607,32.5526894 L78.0786985,32.5526894 L78.0786985,28.8026894 L78.0786985,27.7937879 C78.3286714,25.6750379 80.1304881,24.0293939 82.3223536,24.0293939 C84.6829555,24.0293939 86.6009328,25.9417045 86.6009328,28.2994697 C86.6009328,30.5411364 84.8577657,32.3610227 82.6547017,32.5333712 L82.4626193,32.5526894 Z" id="Fill-5" fill="#000000"></path>
                    <path d="M163.528997,27.8151705 C162.600472,26.736572 160.750255,25.842822 157.979485,25.1350568 L154.634555,24.2752083 C153.857305,24.0729356 153.367798,23.8871402 153.164517,23.7185795 C152.961616,23.5500189 152.86064,23.3140341 152.86064,23.0108144 C152.86064,22.3699053 153.367798,22.0502083 154.381735,22.0502083 C156.190954,22.0502083 159.153427,22.0344886 161.39635,22.0344886 C163.329892,22.0344886 163.455732,19.8420644 163.455732,19.8420644 L163.455732,14.7166856 C161.951909,14.7441477 156.890195,14.7166856 154.786589,14.7166856 C150.934691,14.7166856 148.121974,15.4755871 146.348059,16.992822 C144.574333,18.5094886 143.686996,20.5494508 143.686996,23.1117614 C143.686996,25.7075947 144.261914,27.5619508 145.410803,28.6744508 C146.559121,29.7869508 148.400607,30.6301326 150.934691,31.203428 L154.381735,31.9617614 C154.98949,32.0969886 155.394534,32.2483144 155.597815,32.4166856 C155.800526,32.5858144 155.901502,32.8386553 155.901502,33.1755871 C155.901502,33.815928 155.343856,34.1361932 154.229512,34.1361932 C152.463568,34.1361932 147.609501,34.1647917 143.986508,34.1647917 C143.602533,34.1647917 143.602533,34.5621402 143.602533,34.5621402 L143.602533,41.5704735 C147.256274,41.691875 151.399902,41.5704735 153.721594,41.5704735 C161.189843,41.5704735 164.922543,38.7723674 164.922543,33.1755871 C164.922543,30.6805114 164.458281,28.8939583 163.528997,27.8151705" id="Fill-7" fill="#000000"></path>
                    <g id="Group-11" transform="translate(7.592191, 0.057576)">
                        <mask id="mask-2" fill="white">
                            <use xlink:href="#path-1"></use>
                        </mask>
                        <g id="Clip-10"></g>
                        <path d="M6.17083785,0.131799242 C2.84204176,0.131799242 0.142068872,2.8238447 0.142068872,6.14600379 C0.142068872,9.46910985 2.84204176,12.1611553 6.17083785,12.1611553 C9.49963395,12.1611553 12.197519,9.46910985 12.197519,6.14600379 C12.197519,2.8238447 9.49963395,0.131799242 6.17083785,0.131799242" id="Fill-9" fill="#000000" mask="url(#mask-2)"></path>
                    </g>
                    <path d="M125.426619,14.7167424 L116.274422,14.6839773 C116.094677,14.6839773 115.93657,14.7129545 115.798392,14.7640909 C115.660214,14.8144697 115.541776,14.8868182 115.4408,14.97375 C115.186272,15.1911742 115.038034,15.4991288 114.951293,15.7847348 C114.829629,16.1845455 114.82868,16.5394697 114.82868,16.5394697 L114.82868,17.4875758 L114.82868,30.7375758 C114.82868,31.7631439 114.141207,32.7061364 113.133723,32.9089773 C111.758967,33.1860606 110.549911,32.1451515 110.549911,30.8201515 L110.549911,20.3782955 L110.549911,17.4875758 L110.549911,16.5394697 C110.549911,16.5394697 110.546304,14.6839773 109.104168,14.6839773 L99.9525407,14.7167424 L99.9525407,17.4875758 L99.9525407,29.5610606 C99.9525407,35.1538636 103.576673,39.8907955 108.60574,41.5889015 C109.88901,42.0231818 111.26054,42.2697727 112.688631,42.2697727 C114.119759,42.2697727 115.488061,42.0231818 116.771331,41.5889015 C121.800399,39.8907955 125.426619,35.1538636 125.426619,29.5610606 L125.426619,17.4875758 L125.426619,14.7167424 Z" id="Fill-12" fill="#000000"></path>
                    <path d="M55.6782619,14.7162879 C54.5574648,14.34375 53.3639723,14.1329545 52.1165754,14.1329545 C50.8221068,14.1329545 49.5832511,14.3636364 48.4225949,14.7645833 C46.3969984,15.4664773 44.6323834,16.7208333 43.3189344,18.3577652 C41.9741676,16.6842803 40.1643791,15.4087121 38.0822207,14.7162879 C37.0098238,14.3594697 35.8647316,14.1564394 34.6738964,14.1399621 L34.6738964,14.1393939 C34.6222695,14.1388258 34.571212,14.1329545 34.5190157,14.1329545 C33.272378,14.1329545 32.0766079,14.34375 30.9578986,14.7162879 C26.4764181,16.2056818 23.2408162,20.4153409 23.2408162,25.3873106 L23.2408162,25.4297348 L23.2596068,25.411553 C23.2482185,25.4829545 23.2408162,25.5537879 23.2408162,25.6094697 L23.2408162,41.367803 C23.2408162,41.4897727 23.3406535,41.5899621 23.4634572,41.5899621 L33.6170634,41.5899621 C33.7396773,41.5899621 33.8402739,41.4897727 33.8402739,41.367803 L33.8402739,36.8306818 L33.8402739,36.3857955 L33.8402739,25.8778409 C33.8402739,25.6111742 33.8387554,25.3422348 33.8387554,25.0738636 C33.8387554,24.663447 33.8133216,24.2458333 34.0145146,23.869697 C34.1840103,23.561553 34.4527739,23.2882576 34.7600678,23.1225379 C35.0703986,22.9583333 35.4323563,22.8659091 35.7861524,22.8659091 C36.5381589,22.8659091 37.401391,23.3263258 37.6902739,24.0535985 C37.8827359,24.5426136 37.836993,25.380303 37.836993,25.380303 C37.8305396,25.5026515 37.8246556,25.7028409 37.8246556,25.8251894 L37.8246556,35.9268939 L37.8246556,36.3717803 L37.8246556,41.367803 C37.8246556,41.4897727 37.9252522,41.5899621 38.0478661,41.5899621 L46.1405721,41.592803 L46.5864235,41.592803 L46.674493,41.592803 C48.5264181,41.592803 48.4372099,40.2054924 48.4372099,40.2054924 C48.4290483,40.0835227 48.4225949,39.8833333 48.4225949,39.7609848 L48.4225949,25.0015152 C48.4225949,23.8200758 49.3790211,22.8659091 50.5626437,22.8659091 C51.3662771,22.8659091 52.1532077,23.3462121 52.4521502,24.1013258 C52.6463205,24.5935606 52.6131047,25.380303 52.6131047,25.380303 C52.6076003,25.5026515 52.6034246,25.7028409 52.6034246,25.8251894 L52.6034246,36.3943182 L52.6034246,36.8392045 L52.6034246,41.367803 C52.6034246,41.4897727 52.7034517,41.5899621 52.8260656,41.5899621 L62.9764452,41.5899621 C63.0990591,41.5899621 63.1996556,41.4897727 63.1996556,41.367803 L63.1996556,27.6526515 L63.1996556,27.2077652 L63.1996556,23.5448864 C62.8608541,19.3753788 59.532058,15.9952652 55.6782619,14.7162879" id="Fill-14" fill="#000000"></path>
                    <path d="M89.8825244,51.0889015 L84.721353,51.0889015 C84.7659572,51.6792424 84.9580396,52.1489394 85.2983595,52.4981818 C85.6382999,52.8426894 86.0746611,53.0144697 86.6068736,53.0144697 C87.0212175,53.0144697 87.3636253,52.9161742 87.6348563,52.7197727 C87.9011524,52.522803 88.2044604,52.1584091 88.544211,51.6277273 L89.9493357,52.4097348 C89.7323888,52.7782955 89.5027251,53.0945833 89.2612934,53.3574621 C89.0198617,53.6209091 88.7611578,53.837197 88.4851817,54.0067045 C88.2093953,54.1769697 87.911212,54.3010227 87.5902522,54.3798106 C87.2700515,54.4582197 86.9227088,54.4979924 86.5478444,54.4979924 C85.4731697,54.4979924 84.610507,54.1534848 83.9596665,53.4648485 C83.3093953,52.7709091 82.9838802,51.8514015 82.9838802,50.7051894 C82.9838802,49.5690152 83.2991459,48.6495076 83.9300569,47.9453409 C84.5662825,47.2519697 85.4092055,46.9053788 86.4590157,46.9053788 C87.5186958,46.9053788 88.3572533,47.2423106 88.9729799,47.916553 C89.5845309,48.5851136 89.8901166,49.5125758 89.8901166,50.6981818 L89.8825244,51.0889015 Z M88.1742815,49.730947 C87.9429094,48.8459091 87.3831752,48.4031061 86.4962175,48.4031061 C86.2940754,48.4031061 86.1040808,48.4337879 85.9266133,48.4955303 C85.7491459,48.5572727 85.5878118,48.6453409 85.4424214,48.76125 C85.2974105,48.8765909 85.172519,49.0156061 85.0692652,49.1777273 C84.965442,49.3404167 84.8864832,49.5248864 84.8327684,49.730947 L88.1742815,49.730947 Z" id="Fill-16" fill="#000000"></path>
                    <path d="M92.367961,47.1045833 L94.039192,47.1045833 L94.039192,47.7685985 C94.620564,47.1932197 95.2761497,46.9053409 96.0061388,46.9053409 C96.8439371,46.9053409 97.4968655,47.1689773 97.9654935,47.6949242 C98.369398,48.1424621 98.5717299,48.8729545 98.5717299,49.8864015 L98.5717299,54.2907576 L96.9004989,54.2907576 L96.9004989,50.2775 C96.9004989,49.5691667 96.8019902,49.0795833 96.6051627,48.8091288 C96.4127007,48.53375 96.0625108,48.3956818 95.5553525,48.3956818 C95.0024512,48.3956818 94.6106941,48.5776894 94.3791323,48.9417045 C94.1525054,49.3007955 94.039192,49.9280682 94.039192,50.8233333 L94.039192,54.2907576 L92.367961,54.2907576 L92.367961,47.1045833 Z" id="Fill-18" fill="#000000"></path>
                    <polygon id="Fill-20" fill="#000000" points="109.06577 52.7268561 113.347196 52.7268561 113.347196 54.29125 105.767722 54.29125 110.433503 48.6543182 106.759073 48.6543182 106.759073 47.1043182 113.724149 47.1043182"></polygon>
                    <path d="M120.882787,47.1045833 L122.554018,47.1045833 L122.554018,54.2907576 L120.882787,54.2907576 L120.882787,53.5384848 C120.197213,54.1776894 119.460201,54.4973864 118.671752,54.4973864 C117.676036,54.4973864 116.852852,54.1384848 116.202012,53.4204924 C115.556486,52.6877273 115.233628,51.7725758 115.233628,50.6756061 C115.233628,49.5985227 115.556486,48.7007955 116.202012,47.9826136 C116.847728,47.2646212 117.656296,46.9053409 118.627527,46.9053409 C119.464946,46.9053409 120.217522,47.2494697 120.882787,47.9384848 L120.882787,47.1045833 Z M116.934469,50.6756061 C116.934469,51.3642424 117.118959,51.9250379 117.488319,52.3581818 C117.868118,52.7956818 118.346996,53.0146212 118.922863,53.0146212 C119.53878,53.0146212 120.036828,52.8032576 120.417007,52.3801515 C120.796236,51.9422727 120.986041,51.3862121 120.986041,50.7127273 C120.986041,50.0386742 120.796236,49.4831818 120.417007,49.045303 C120.036828,48.6168939 119.544094,48.4032576 118.938048,48.4032576 C118.366166,48.4032576 117.888048,48.6197348 117.503503,49.0526894 C117.123704,49.4901894 116.934469,50.0316667 116.934469,50.6756061 L116.934469,50.6756061 Z" id="Fill-22" fill="#000000"></path>
                    <path d="M126.983796,58.2015152 L125.320157,58.2015152 L125.320157,47.1043561 L126.983796,47.1043561 L126.983796,47.8867424 C127.639382,47.2325758 128.383796,46.9051136 129.21647,46.9051136 C130.20763,46.9051136 131.023601,47.269697 131.664192,47.9973485 C132.315602,48.7202652 132.640358,49.6327652 132.640358,50.7344697 C132.640358,51.8123106 132.31769,52.7096591 131.671594,53.4276515 C131.031003,54.1409091 130.222625,54.4977273 129.246459,54.4977273 C128.403536,54.4977273 127.649062,54.1607955 126.983796,53.486553 L126.983796,58.2015152 Z M130.940277,50.7420455 C130.940277,50.0535985 130.75237,49.4926136 130.377695,49.0600379 C129.997896,48.6221591 129.519588,48.4032197 128.94372,48.4032197 C128.332169,48.4032197 127.836779,48.6145833 127.456979,49.0380682 C127.077939,49.4609848 126.887375,50.0164773 126.887375,50.7051136 C126.887375,51.3791667 127.077939,51.9350379 127.456979,52.3725379 C127.832034,52.8007576 128.324577,53.0143939 128.936128,53.0143939 C129.512185,53.0143939 129.988785,52.7981061 130.36308,52.3651515 C130.747625,51.9323864 130.940277,51.3914773 130.940277,50.7420455 L130.940277,50.7420455 Z" id="Fill-24" fill="#000000"></path>
                    <path d="M140.375415,47.1045833 L142.046646,47.1045833 L142.046646,54.2907576 L140.375415,54.2907576 L140.375415,53.5384848 C139.690409,54.1776894 138.952828,54.4973864 138.164379,54.4973864 C137.168663,54.4973864 136.34548,54.1384848 135.695019,53.4204924 C135.048734,52.6877273 134.726255,51.7725758 134.726255,50.6756061 C134.726255,49.5985227 135.048734,48.7007955 135.695019,47.9826136 C136.340545,47.2646212 137.149493,46.9053409 138.120155,46.9053409 C138.957573,46.9053409 139.710149,47.2494697 140.375415,47.9384848 L140.375415,47.1045833 Z M136.427096,50.6756061 C136.427096,51.3642424 136.612156,51.9250379 136.981516,52.3581818 C137.361315,52.7956818 137.839623,53.0146212 138.415681,53.0146212 C139.031977,53.0146212 139.530024,52.8032576 139.909254,52.3801515 C140.288864,51.9422727 140.479428,51.3862121 140.479428,50.7127273 C140.479428,50.0386742 140.288864,49.4831818 139.909254,49.045303 C139.530024,48.6168939 139.036722,48.4032576 138.431245,48.4032576 C137.858793,48.4032576 137.380865,48.6197348 136.996131,49.0526894 C136.616331,49.4901894 136.427096,50.0316667 136.427096,50.6756061 L136.427096,50.6756061 Z" id="Fill-26" fill="#000000"></path>
                    <polygon id="Fill-28" fill="#000000" points="146.527937 48.6541477 146.527937 54.2910795 144.864298 54.2910795 144.864298 48.6541477 144.154428 48.6541477 144.154428 47.1047159 144.864298 47.1047159 144.864298 44.470625 146.527937 44.470625 146.527937 47.1047159 147.822025 47.1047159 147.822025 48.6541477"></polygon>
                    <path d="M149.38317,50.6462879 C149.38317,49.6084091 149.755377,48.7254545 150.499791,47.9972348 C151.244206,47.2693939 152.150523,46.9055682 153.220832,46.9055682 C154.295507,46.9055682 155.207709,47.2722348 155.956868,48.0046212 C156.696348,48.7377652 157.066087,49.6379545 157.066087,50.7053788 C157.066087,51.7824621 156.693311,52.685303 155.949466,53.4127652 C155.199737,54.1364394 154.280512,54.4976136 153.191223,54.4976136 C152.111803,54.4976136 151.207004,54.1288636 150.477394,53.3907955 C149.747975,52.6631439 149.38317,51.7479924 149.38317,50.6462879 M151.08401,50.6758333 C151.08401,51.3938258 151.276093,51.962197 151.660447,52.3801894 C152.054672,52.8032955 152.574737,53.0146591 153.220832,53.0146591 C153.871483,53.0146591 154.391169,52.8053788 154.780648,52.387197 C155.170507,51.9697727 155.365247,51.4110606 155.365247,50.7129545 C155.365247,50.0140909 155.170507,49.455947 154.780648,49.0377652 C154.386234,48.6148485 153.866169,48.4029167 153.220832,48.4029167 C152.584986,48.4029167 152.069856,48.6148485 151.675632,49.0377652 C151.280838,49.4606818 151.08401,50.0065152 151.08401,50.6758333" id="Fill-30" fill="#000000"></path>
                    <path d="M163.677291,48.3293561 L162.302156,49.0596591 C162.084639,48.6170455 161.816255,48.3960227 161.495865,48.3960227 C161.343072,48.3960227 161.211917,48.4464015 161.104108,48.5471591 C160.99497,48.6482955 160.941255,48.7768939 160.941255,48.9346591 C160.941255,49.2100379 161.261266,49.4833333 161.902427,49.7537879 C162.78445,50.132197 163.378349,50.4814394 163.684314,50.8013258 C163.98971,51.1212121 164.143072,51.5511364 164.143072,52.0920455 C164.143072,52.7859848 163.886646,53.3662879 163.373414,53.8335227 C162.875935,54.2763258 162.274634,54.4975379 161.569509,54.4975379 C160.361971,54.4975379 159.506142,53.9098485 159.003918,52.7340909 L160.423848,52.0776515 C160.620675,52.4221591 160.77119,52.6407197 160.874444,52.7340909 C161.076776,52.9212121 161.318208,53.0145833 161.599688,53.0145833 C162.161131,53.0145833 162.442421,52.7592803 162.442421,52.2473485 C162.442421,51.9520833 162.225854,51.6767045 161.791011,51.4206439 C161.623793,51.3369318 161.456006,51.2564394 161.288788,51.1776515 C161.120811,51.0986742 160.950935,51.0176136 160.778403,50.9339015 C160.29535,50.6977273 159.955409,50.4617424 159.758012,50.2255682 C159.506142,49.9255682 159.38087,49.5395833 159.38087,49.0672348 C159.38087,48.4426136 159.59554,47.9263258 160.024309,47.5179924 C160.462568,47.1094697 160.99497,46.9054924 161.621136,46.9054924 C162.543018,46.9054924 163.228783,47.3799242 163.677291,48.3293561" id="Fill-32" fill="#000000"></path>
                    <path d="M6.89909978,51.0889015 L1.73792842,51.0889015 C1.78234273,51.6792424 1.97442516,52.1489394 2.31436551,52.4981818 C2.65487527,52.8426894 3.09104664,53.0144697 3.62363883,53.0144697 C4.03760304,53.0144697 4.37982104,52.9161742 4.65143167,52.7197727 C4.91715835,52.522803 5.22046638,52.1584091 5.56097614,51.6277273 L6.96572126,52.4097348 C6.7485846,52.7782955 6.51949024,53.0945833 6.27786876,53.3574621 C6.03643709,53.6209091 5.77773319,53.837197 5.50118764,54.0067045 C5.2252115,54.1769697 4.927218,54.3010227 4.60663774,54.3798106 C4.28624729,54.4582197 3.93871475,54.4979924 3.56441974,54.4979924 C2.4891757,54.4979924 1.62708243,54.1534848 0.976241866,53.4648485 C0.325401302,52.7709091 7.59219089e-05,51.8514015 7.59219089e-05,50.7051894 C7.59219089e-05,49.5690152 0.315721258,48.6495076 0.946632321,47.9453409 C1.5822885,47.2519697 2.42578091,46.9053788 3.47559111,46.9053788 C4.53527115,46.9053788 5.37306941,47.2423106 5.98955531,47.916553 C6.60053688,48.5851136 6.90669197,49.5125758 6.90669197,50.6981818 L6.89909978,51.0889015 Z M5.19085683,49.730947 C4.95910521,48.8459091 4.39975054,48.4031061 3.51279284,48.4031061 C3.30989154,48.4031061 3.12065618,48.4337879 2.94318872,48.4955303 C2.76572126,48.5572727 2.6043872,48.6453409 2.45899675,48.76125 C2.31322668,48.8765909 2.18909436,49.0156061 2.08527115,49.1777273 C1.98201735,49.3404167 1.90286876,49.5248864 1.8485846,49.730947 L5.19085683,49.730947 Z" id="Fill-34" fill="#000000"></path>
                    <polygon id="Fill-36" fill="#000000" points="11.2684056 50.4027083 8.68022777 47.1047917 10.6617896 47.1047917 12.2665889 49.1998674 13.9006182 47.1047917 15.9413991 47.1047917 13.2793872 50.4027083 16.3629555 54.2909659 14.3815835 54.2909659 12.2665889 51.6055492 10.1001573 54.2909659 8.06658894 54.2909659"></polygon>
                    <path d="M19.756513,58.2015152 L18.0928742,58.2015152 L18.0928742,47.1043561 L19.756513,47.1043561 L19.756513,47.8867424 C20.4120987,47.2325758 21.156513,46.9051136 21.989756,46.9051136 C22.9803471,46.9051136 23.7957484,47.269697 24.4369089,47.9973485 C25.0877495,48.7202652 25.4130748,49.6327652 25.4130748,50.7344697 C25.4130748,51.8123106 25.0904067,52.7096591 24.4445011,53.4276515 C23.8033406,54.1409091 22.9953416,54.4977273 22.0191757,54.4977273 C21.1764425,54.4977273 20.4217787,54.1607955 19.756513,53.486553 L19.756513,58.2015152 Z M23.7124241,50.7420455 C23.7124241,50.0535985 23.5247072,49.4926136 23.1502223,49.0600379 C22.7706128,48.6221591 22.2924946,48.4032197 21.7158677,48.4032197 C21.1048861,48.4032197 20.6089262,48.6145833 20.2298861,49.0380682 C19.8500868,49.4609848 19.660282,50.0164773 19.660282,50.7051136 C19.660282,51.3791667 19.8500868,51.9350379 20.2298861,52.3725379 C20.6041811,52.8007576 21.0972939,53.0143939 21.7082755,53.0143939 C22.2849024,53.0143939 22.7609328,52.7981061 23.1357972,52.3651515 C23.5197722,51.9323864 23.7124241,51.3914773 23.7124241,50.7420455 L23.7124241,50.7420455 Z" id="Fill-38" fill="#000000"></path>
                    <path d="M34.3371828,51.0889015 L29.1758216,51.0889015 C29.2204257,51.6792424 29.4125081,52.1489394 29.7530179,52.4981818 C30.0929582,52.8426894 30.5291296,53.0144697 31.061532,53.0144697 C31.475686,53.0144697 31.817904,52.9161742 32.0895146,52.7197727 C32.3552413,52.522803 32.6585493,52.1584091 32.9988693,51.6277273 L34.4038042,52.4097348 C34.1864778,52.7782955 33.9573834,53.0945833 33.7159517,53.3574621 C33.4745201,53.6209091 33.2156264,53.837197 32.9392706,54.0067045 C32.6632945,54.1769697 32.365301,54.3010227 32.0447207,54.3798106 C31.7241405,54.4582197 31.3767977,54.4979924 31.0025027,54.4979924 C29.9278281,54.4979924 29.0651654,54.1534848 28.4143248,53.4648485 C27.7640537,52.7709091 27.4379691,51.8514015 27.4379691,50.7051894 C27.4379691,49.5690152 27.7538042,48.6495076 28.3847153,47.9453409 C29.0203715,47.2519697 29.8638639,46.9053788 30.9136741,46.9053788 C31.9731643,46.9053788 32.8111524,47.2423106 33.4276383,47.916553 C34.0386198,48.5851136 34.3447749,49.5125758 34.3447749,50.6981818 L34.3371828,51.0889015 Z M32.6289398,49.730947 C32.3969984,48.8459091 31.8378335,48.4031061 30.9508758,48.4031061 C30.7485439,48.4031061 30.5587392,48.4337879 30.3812717,48.4955303 C30.2038042,48.5572727 30.0424702,48.6453409 29.8970797,48.76125 C29.7513097,48.8765909 29.6271773,49.0156061 29.5233541,49.1777273 C29.4201003,49.3404167 29.3409517,49.5248864 29.2866676,49.730947 L32.6289398,49.730947 Z" id="Fill-40" fill="#000000"></path>
                    <path d="M36.7620146,47.1045833 L38.4256535,47.1045833 L38.4256535,47.7466288 C38.7310493,47.426553 39.00266,47.2081818 39.2387771,47.0901894 C39.4803986,46.9670833 39.7664344,46.9053409 40.0966947,46.9053409 C40.5355233,46.9053409 40.9939018,47.0481439 41.4720201,47.3331818 L40.7103335,48.8530682 C40.3952576,48.6271212 40.0870146,48.5138636 39.7863639,48.5138636 C38.8789073,48.5138636 38.4256535,49.1977652 38.4256535,50.565 L38.4256535,54.2907576 L36.7620146,54.2907576 L36.7620146,47.1045833 Z" id="Fill-42" fill="#000000"></path>
                    <polygon id="Fill-44" fill="#000000" points="45.2944225 48.6541477 45.2944225 54.2910795 43.6307836 54.2910795 43.6307836 48.6541477 42.9209138 48.6541477 42.9209138 47.1047159 43.6307836 47.1047159 43.6307836 44.470625 45.2944225 44.470625 45.2944225 47.1047159 46.5885114 47.1047159 46.5885114 48.6541477"></polygon>
                    <path d="M48.0885765,50.6462879 C48.0885765,49.6084091 48.4607836,48.7254545 49.2051979,47.9972348 C49.9496123,47.2693939 50.8564995,46.9055682 51.9262392,46.9055682 C53.000724,46.9055682 53.9131155,47.2722348 54.6622749,48.0046212 C55.4017543,48.7377652 55.7713042,49.6379545 55.7713042,50.7053788 C55.7713042,51.7824621 55.3990971,52.685303 54.6546828,53.4127652 C53.9055233,54.1364394 52.9862988,54.4976136 51.8966296,54.4976136 C50.8170201,54.4976136 49.9124105,54.1288636 49.1831806,53.3907955 C48.4531914,52.6631439 48.0885765,51.7479924 48.0885765,50.6462879 M49.7892272,50.6758333 C49.7892272,51.3938258 49.9813097,51.962197 50.3658541,52.3801894 C50.760648,52.8032955 51.2801437,53.0146591 51.9262392,53.0146591 C52.5768899,53.0146591 53.0971448,52.8053788 53.4864344,52.387197 C53.8759138,51.9697727 54.0706535,51.4110606 54.0706535,50.7129545 C54.0706535,50.0140909 53.8759138,49.455947 53.4864344,49.0377652 C53.0916405,48.6148485 52.5721448,48.4029167 51.9262392,48.4029167 C51.2903932,48.4029167 50.775263,48.6148485 50.3810385,49.0377652 C49.9862446,49.4606818 49.7892272,50.0065152 49.7892272,50.6758333" id="Fill-46" fill="#000000"></path>
                    <path d="M62.3222641,48.3293561 L60.9469387,49.0596591 C60.7296123,48.6170455 60.4612283,48.3960227 60.140648,48.3960227 C59.988045,48.3960227 59.8572695,48.4464015 59.7490808,48.5471591 C59.6405125,48.6482955 59.5862283,48.7768939 59.5862283,48.9346591 C59.5862283,49.2100379 59.9068086,49.4833333 60.5479691,49.7537879 C61.4299919,50.132197 62.0237012,50.4814394 62.3292869,50.8013258 C62.6352522,51.1212121 62.788045,51.5511364 62.788045,52.0920455 C62.788045,52.7859848 62.5316188,53.3662879 62.0189561,53.8335227 C61.5209084,54.2763258 60.9196068,54.4975379 60.2148617,54.4975379 C59.0069441,54.4975379 58.1516838,53.9098485 57.648891,52.7340909 L59.0688205,52.0776515 C59.265648,52.4221591 59.4161632,52.6407197 59.5199864,52.7340909 C59.7217489,52.9212121 59.9631806,53.0145833 60.2446611,53.0145833 C60.806673,53.0145833 61.0873943,52.7592803 61.0873943,52.2473485 C61.0873943,51.9520833 60.8706372,51.6767045 60.4365537,51.4206439 C60.2693357,51.3369318 60.1015483,51.2564394 59.9337608,51.1776515 C59.766353,51.0986742 59.5959084,51.0176136 59.4237554,50.9339015 C58.9408921,50.6977273 58.6003823,50.4617424 58.4035548,50.2255682 C58.1516838,49.9255682 58.0258433,49.5395833 58.0258433,49.0672348 C58.0258433,48.4426136 58.2405125,47.9263258 58.6690916,47.5179924 C59.1081101,47.1094697 59.6405125,46.9054924 60.2664886,46.9054924 C61.1885602,46.9054924 61.8737554,47.3799242 62.3222641,48.3293561" id="Fill-48" fill="#000000"></path>
                    <path d="M168.908595,17.6970265 C168.908595,17.2869886 168.986415,16.9000568 169.142435,16.5367992 C169.299024,16.1733523 169.511415,15.8572538 169.782077,15.5877462 C170.051979,15.318428 170.367625,15.105928 170.729203,14.9502462 C171.090591,14.7945644 171.476654,14.7167235 171.888151,14.7167235 C172.299078,14.7167235 172.686849,14.7945644 173.051085,14.9502462 C173.41513,15.105928 173.731914,15.318428 174.002007,15.5877462 C174.272099,15.8572538 174.48506,16.1733523 174.640889,16.5367992 C174.796909,16.9000568 174.875488,17.2869886 174.875488,17.6970265 C174.875488,18.1076326 174.796909,18.4930492 174.640889,18.8536553 C174.48506,19.2148295 174.272099,19.5297917 174.002007,19.7987311 C173.731914,20.0686174 173.41513,20.2807386 173.051085,20.4367992 C172.686849,20.5924811 172.299078,20.670322 171.888151,20.670322 C171.476654,20.670322 171.090591,20.5924811 170.729203,20.4367992 C170.367625,20.2807386 170.051979,20.0686174 169.782077,19.7987311 C169.511415,19.5297917 169.299024,19.2148295 169.142435,18.8536553 C168.986415,18.4930492 168.908595,18.1076326 168.908595,17.6970265 L168.908595,17.6970265 Z M169.488449,17.6970265 C169.488449,18.0282765 169.551274,18.3383144 169.677684,18.6277083 C169.804094,18.9169129 169.976247,19.170322 170.193953,19.3875568 C170.411849,19.6049811 170.666188,19.7767614 170.95564,19.9028977 C171.245662,20.0290341 171.556372,20.0917235 171.888151,20.0917235 C172.21955,20.0917235 172.53102,20.0290341 172.820851,19.9028977 C173.110304,19.7767614 173.364262,19.6049811 173.581969,19.3875568 C173.800244,19.170322 173.972397,18.9169129 174.098807,18.6277083 C174.225217,18.3383144 174.288232,18.0282765 174.288232,17.6970265 C174.288232,17.3659659 174.225217,17.0557386 174.098807,16.7669129 C173.972397,16.4777083 173.800244,16.2244886 173.581969,16.0064962 C173.364262,15.789072 173.110304,15.6174811 172.820851,15.4917235 C172.53102,15.3650189 172.21955,15.3023295 171.888151,15.3023295 C171.556372,15.3023295 171.245662,15.3650189 170.95564,15.4917235 C170.666188,15.6174811 170.411849,15.789072 170.193953,16.0064962 C169.976247,16.2244886 169.804094,16.4777083 169.677684,16.7669129 C169.551274,17.0557386 169.488449,17.3659659 169.488449,17.6970265 L169.488449,17.6970265 Z M173.574946,19.350625 L172.304582,19.350625 L171.531508,18.2311174 L171.531508,19.350625 L170.513395,19.350625 L170.513395,15.9989205 L171.977549,15.9989205 C172.333623,15.9989205 172.624024,16.0945644 172.846665,16.2849053 C173.069875,16.4750568 173.180721,16.7332008 173.180721,17.0595265 C173.180721,17.5489205 172.943465,17.8627462 172.467435,18.0013826 L173.574946,19.350625 Z M171.531508,17.4523295 L171.642923,17.4523295 C171.974702,17.4523295 172.140971,17.3364205 172.140971,17.1040341 C172.140971,16.8763826 171.974702,16.7625568 171.642923,16.7625568 L171.531508,16.7625568 L171.531508,17.4523295 Z" id="Fill-50" fill="#000000"></path>
                </g>
            </g>
        </g>
    </g>
</svg>