<?xml version="1.0" encoding="UTF-8"?>
<svg width="34px" height="34px" viewBox="0 0 34 34" version="1.1" xmlns="http://www.w3.org/2000/svg" xmlns:xlink="http://www.w3.org/1999/xlink">
    <!-- Generator: Sketch 61 (89581) - https://sketch.com -->
    <title>in</title>
    <desc>Created with Sketch.</desc>
    <defs>
        <polygon id="path-1" points="-3.03401748e-13 0.000268421053 33.9193894 0.000268421053 33.9193894 33.8103158 -3.03401748e-13 33.8103158"></polygon>
    </defs>
    <g id="Page-1" stroke="none" stroke-width="1" fill="none" fill-rule="evenodd">
        <g id="01_Home" transform="translate(-170.000000, -7000.000000)">
            <g id="in" transform="translate(170.000000, 7000.000000)">
                <mask id="mask-2" fill="white">
                    <use xlink:href="#path-1"></use>
                </mask>
                <g id="Clip-11"></g>
                <path d="M22.0100366,13.3504579 C21.2030519,13.3504579 20.5459742,12.6981947 20.5459742,11.8911421 C20.5459742,11.0858789 21.2030519,10.4318263 22.0100366,10.4318263 C22.8197142,10.4318263 23.4758942,11.0858789 23.4758942,11.8911421 C23.4758942,12.6981947 22.8197142,13.3504579 22.0100366,13.3504579 M16.9598742,21.9748263 C14.1610107,21.9748263 11.8729084,19.6959316 11.8729084,16.9052474 C11.8729084,14.1145632 14.1610107,11.8365632 16.9598742,11.8365632 C19.7587378,11.8365632 22.0468401,14.1145632 22.0468401,16.9052474 C22.0468401,19.6959316 19.7587378,21.9748263 16.9598742,21.9748263 M20.9238836,9.15682632 L12.9967625,9.15682632 C10.8576695,9.15682632 9.16380953,10.8496684 9.16380953,12.9800368 L9.16380953,20.8313526 C9.16380953,22.9635105 10.8576695,24.6536684 12.9967625,24.6536684 L20.9238836,24.6536684 C23.0620789,24.6536684 24.7577342,22.9635105 24.7577342,20.8313526 L24.7577342,12.9800368 C24.7577342,10.8496684 23.0620789,9.15682632 20.9238836,9.15682632" id="Fill-8" fill="#FFFFFF" fill-rule="evenodd" mask="url(#mask-2)"></path>
                <path d="M26.8593953,21.0361579 C26.8593953,24.1883158 24.2894318,26.7508421 21.1297141,26.7508421 L12.7896753,26.7508421 C9.62906,26.7508421 7.05819882,24.1883158 7.05819882,21.0361579 L7.05819882,12.7768421 C7.05819882,9.62468421 9.62906,7.06036842 12.7896753,7.06036842 L21.1297141,7.06036842 C24.2894318,7.06036842 26.8593953,9.62468421 26.8593953,12.7768421 L26.8593953,21.0361579 Z M28.9527082,4.95147368 C25.7714471,1.78142105 21.4573553,-7.29786602e-14 16.9601435,-7.29786602e-14 C12.4620341,-7.29786602e-14 8.14704471,1.78142105 4.96668118,4.95147368 C1.78631765,8.12242105 -3.03401748e-13,12.4207368 -3.03401748e-13,16.9051579 C-3.03401748e-13,21.3895789 1.78631765,25.6878947 4.96668118,28.8579474 C8.14704471,32.0288947 12.4620341,33.8103158 16.9601435,33.8103158 C21.4573553,33.8103158 25.7714471,32.0288947 28.9527082,28.8579474 C32.1330718,25.6878947 33.9193894,21.3895789 33.9193894,16.9051579 C33.9193894,12.4207368 32.1330718,8.12242105 28.9527082,4.95147368 L28.9527082,4.95147368 Z" id="Fill-10" fill="#FFFFFF" fill-rule="evenodd" mask="url(#mask-2)"></path>
                <path d="M16.9598742,13.6964526 C15.1717613,13.6964526 13.7400142,15.1244526 13.7400142,16.9049789 C13.7400142,18.6881895 15.1717613,20.1144 16.9598742,20.1144 C18.7470895,20.1144 20.1815295,18.6881895 20.1815295,16.9049789 C20.1815295,15.1244526 18.7470895,13.6964526 16.9598742,13.6964526" id="Fill-13" fill="#FFFFFF" fill-rule="evenodd" mask="url(#mask-2)"></path>
            </g>
        </g>
    </g>
</svg>