<svg id="Layer_1" data-name="Layer 1" xmlns="http://www.w3.org/2000/svg" xmlns:xlink="http://www.w3.org/1999/xlink" viewBox="0 0 24.39 24.16"><defs><style>.cls-1{fill:url(#radial-gradient);}.cls-2{fill:#fff;}</style><radialGradient id="radial-gradient" cx="4.64" cy="22.74" r="23.6" gradientUnits="userSpaceOnUse"><stop offset="0" stop-color="#f7e000"/><stop offset="0.04" stop-color="#f7c800"/><stop offset="0.1" stop-color="#f6b000"/><stop offset="0.13" stop-color="#f6a700"/><stop offset="0.32" stop-color="#e66149"/><stop offset="0.36" stop-color="#e4544d"/><stop offset="0.43" stop-color="#de3159"/><stop offset="0.5" stop-color="#d70568"/><stop offset="0.66" stop-color="#bc0090"/><stop offset="0.76" stop-color="#a113a5"/><stop offset="0.87" stop-color="#8528bc"/><stop offset="1" stop-color="#5456da"/></radialGradient></defs><path class="cls-1" d="M12.2,1.24A10.84,10.84,0,1,0,23,12.08,10.84,10.84,0,0,0,12.2,1.24Z"/><path class="cls-2" d="M14.94,5.3H9.46a4,4,0,0,0-4,4v5.48a4,4,0,0,0,4,4h5.48a4,4,0,0,0,4-4V9.34A4,4,0,0,0,14.94,5.3Zm2.68,9.52a2.67,2.67,0,0,1-2.68,2.67H9.46a2.67,2.67,0,0,1-2.67-2.67V9.34A2.67,2.67,0,0,1,9.46,6.67h5.48a2.67,2.67,0,0,1,2.68,2.67Z"/><path class="cls-2" d="M12.2,8.57a3.51,3.51,0,1,0,3.51,3.51A3.51,3.51,0,0,0,12.2,8.57Zm0,5.65a2.14,2.14,0,1,1,2.14-2.14A2.14,2.14,0,0,1,12.2,14.22Z"/><path class="cls-2" d="M15.72,7.76a.84.84,0,1,0,.84.84A.85.85,0,0,0,15.72,7.76Z"/></svg>