<?xml version="1.0" encoding="UTF-8"?>
<svg width="83px" height="54px" viewBox="0 0 83 54" version="1.1" xmlns="http://www.w3.org/2000/svg" xmlns:xlink="http://www.w3.org/1999/xlink">
    <!-- Generator: Sketch 61 (89581) - https://sketch.com -->
    <title>Group 32</title>
    <desc>Created with Sketch.</desc>
    <g id="Page-1" stroke="none" stroke-width="1" fill="none" fill-rule="evenodd">
        <g id="01_Home" transform="translate(-1112.000000, -3096.000000)">
            <g id="Group-32" transform="translate(1112.000000, 3098.000000)">
                <line x1="62" y1="37.0038136" x2="72" y2="36.9961864" id="Stroke-1" stroke="#FFFFFF" stroke-width="2.5"></line>
                <g id="Group-31">
                    <path d="M31.4803082,49.8566477 C30.0968801,50.1441477 27.0634007,50.3217045 25.1359247,47.0569318 L16.9925445,33.0952841 L12.0514863,33.0952841" id="Stroke-2" stroke="#FFFFFF" stroke-width="2.5"></path>
                    <line x1="39.4347781" y1="35.3935227" x2="44.3090384" y2="44.1736364" id="Stroke-4" stroke="#FFFFFF" stroke-width="2.5" stroke-linecap="round"></line>
                    <line x1="32.3819099" y1="41.1308239" x2="35.5464271" y2="46.6285511" id="Stroke-6" stroke="#FFFFFF" stroke-width="2.5" stroke-linecap="round"></line>
                    <path d="M50.6025702,46.1712216 C49.1836113,46.7715057 46.4676353,47.8933807 44.2780839,44.1405398" id="Stroke-8" stroke="#FFFFFF" stroke-width="2.5"></path>
                    <path d="M40.6827911,48.5227557 C40.6827911,48.5227557 37.7115616,50.5667898 35.5507192,46.6273011" id="Stroke-10" stroke="#FFFFFF" stroke-width="2.5"></path>
                    <g id="Group-16" stroke="#FFFFFF" stroke-width="2.5">
                        <polyline id="Stroke-14" points="0.0877184931 0.0930113636 11.7051603 0.0930113636 11.7051603 38.2165909 -0.000113698632 38.2165909"></polyline>
                    </g>
                    <line x1="12.0316175" y1="4.74278409" x2="28.1026346" y2="4.74278409" id="Stroke-12" stroke="#FFFFFF" stroke-width="2.5"></line>
                    <polyline id="Stroke-17" stroke="#FFFFFF" stroke-width="2.5" points="82.7057764 3.37559659 71.0849236 3.37559659 71.0849236 41.4991761 82.7924716 41.4991761"></polyline>
                    <path d="M62.2133606,39.1888068 L49.0746312,14.1567045 C47.9598161,14.0856818 42.2973401,13.5763068 42.2973401,13.5763068 L34.5359873,21.4530114 C28.0605661,26.4001705 24.5185695,19.108125 24.5185695,19.108125 L34.4893709,6.12119318 C37.8315421,1.92176136 41.1958846,1.87403409 41.1958846,1.87403409 L56.2009771,1.89534091 L70.8962408,8.28511364" id="Stroke-19" stroke="#FFFFFF" stroke-width="2.5"></path>
                    <path d="M63.0772144,38.1900568 C62.4797281,39.8747159 58.6591699,49.7247159 53.7249336,41.0985795 L46.8495774,30.3232955" id="Stroke-21" stroke="#FFFFFF" stroke-width="2.5" stroke-linecap="round"></path>
                    <path d="M81.129089,31.9955398 C81.129089,32.4861648 80.7337021,32.8810511 80.2430925,32.8810511 C79.7544726,32.8810511 79.3570959,32.4861648 79.3570959,31.9955398 C79.3570959,31.5049148 79.7544726,31.1100284 80.2430925,31.1100284 C80.7337021,31.1100284 81.129089,31.5049148 81.129089,31.9955398" id="Fill-23"></path>
                    <path d="M81.129089,31.9955398 C81.129089,32.4861648 80.7337021,32.8810511 80.2430925,32.8810511 C79.7544726,32.8810511 79.3570959,32.4861648 79.3570959,31.9955398 C79.3570959,31.5049148 79.7544726,31.1100284 80.2430925,31.1100284 C80.7337021,31.1100284 81.129089,31.5049148 81.129089,31.9955398 Z" id="Stroke-25" stroke="#FFFFFF" stroke-width="2.5"></path>
                    <path d="M3.40985034,28.5997443 C3.40985034,29.0903693 3.01446336,29.4852557 2.52385377,29.4852557 C2.0352339,29.4852557 1.63785719,29.0903693 1.63785719,28.5997443 C1.63785719,28.1091193 2.0352339,27.714233 2.52385377,27.714233 C3.01446336,27.714233 3.40985034,28.1091193 3.40985034,28.5997443" id="Fill-27"></path>
                    <path d="M3.40985034,28.5997443 C3.40985034,29.0903693 3.01446336,29.4852557 2.52385377,29.4852557 C2.0352339,29.4852557 1.63785719,29.0903693 1.63785719,28.5997443 C1.63785719,28.1091193 2.0352339,27.714233 2.52385377,27.714233 C3.01446336,27.714233 3.40985034,28.1091193 3.40985034,28.5997443 Z" id="Stroke-29" stroke="#FFFFFF" stroke-width="2.5"></path>
                </g>
            </g>
        </g>
    </g>
</svg>