<?xml version="1.0" encoding="UTF-8"?>
<svg width="18px" height="20px" viewBox="0 0 18 20" version="1.1" xmlns="http://www.w3.org/2000/svg" xmlns:xlink="http://www.w3.org/1999/xlink">
    <!-- Generator: Sketch 61 (89581) - https://sketch.com -->
    <title>login icon</title>
    <desc>Created with Sketch.</desc>
    <g id="Page-1" stroke="none" stroke-width="1" fill="none" fill-rule="evenodd">
        <g id="01_Home" transform="translate(-1120.000000, -39.000000)" fill="#000000">
            <g id="login-icon" transform="translate(1120.000000, 39.000000)">
                <g id="Group-33">
                    <g id="Shape-3" transform="translate(0.000000, 10.000000)" fill-rule="nonzero">
                        <path d="M18,9.72972973 C18,9.87899589 17.8778959,10 17.7272727,10 C17.5766496,10 17.4545455,9.87899589 17.4545455,9.72972973 C17.4545455,5.10247914 13.6693165,1.35135135 9,1.35135135 C4.33068349,1.35135135 0.545454545,5.10247914 0.545454545,9.72972973 C0.545454545,9.87899589 0.4233504,10 0.272727273,10 C0.122104145,10 0,9.87899589 0,9.72972973 C0,4.80394681 4.02943724,0.810810811 9,0.810810811 C13.9705628,0.810810811 18,4.80394681 18,9.72972973 Z" id="Shape"></path>
                    </g>
                    <path d="M9,3.55271368e-15 C11.8618391,3.55271368e-15 14.1818182,2.31916501 14.1818182,5.18 C14.1818182,8.04083499 11.8618391,10.36 9,10.36 C6.13816085,10.36 3.81818182,8.04083499 3.81818182,5.18 C3.81818182,2.31916501 6.13816085,3.55271368e-15 9,3.55271368e-15 Z M9,0.545263158 C6.43940705,0.545263158 4.36363636,2.62030551 4.36363636,5.18 C4.36363636,7.73969449 6.43940705,9.81473684 9,9.81473684 C11.5605929,9.81473684 13.6363636,7.73969449 13.6363636,5.18 C13.6363636,2.62030551 11.5605929,0.545263158 9,0.545263158 Z" id="Combined-Shape"></path>
                </g>
            </g>
        </g>
    </g>
</svg>