<?xml version="1.0" encoding="UTF-8"?>
<svg width="15px" height="14px" viewBox="0 0 15 14" version="1.1" xmlns="http://www.w3.org/2000/svg" xmlns:xlink="http://www.w3.org/1999/xlink">
    <title>Group 5</title>
    <g id="simbolos" stroke="none" stroke-width="1" fill="none" fill-rule="evenodd">
        <g id="iconos" transform="translate(-75.000000, -2.000000)">
            <g id="Group-5" transform="translate(75.117900, 2.000000)">
                <path d="M6.926,-8.8817842e-16 C3.101,-8.8817842e-16 2.7533531e-14,3.101 2.7533531e-14,6.927 C2.7533531e-14,10.752 3.101,13.853 6.926,13.853 C10.751,13.853 13.853,10.752 13.853,6.927 C13.853,3.101 10.751,-8.8817842e-16 6.926,-8.8817842e-16" id="Fill-19" fill="#0056B9"></path>
                <path d="M5.3469,7.1465 L3.6839,5.8895 L3.6839,8.4035 L5.3469,7.1465 Z M8.2249,7.3585 L7.3009,8.0575 C7.1889,8.1425 7.0569,8.1855 6.9269,8.1855 C6.7959,8.1855 6.6639,8.1425 6.5529,8.0575 L5.6279,7.3585 L3.7169,8.8025 C3.7299,8.8285 3.7469,8.8515 3.7669,8.8715 C3.8189,8.9225 3.8889,8.9545 3.9669,8.9545 L9.8869,8.9545 C9.9639,8.9545 10.0339,8.9225 10.0859,8.8725 L10.0859,8.8715 C10.1059,8.8515 10.1229,8.8285 10.1359,8.8025 L8.2249,7.3585 Z M10.1679,5.8895 L8.5059,7.1465 L10.1679,8.4035 L10.1679,5.8895 Z M3.6839,5.4665 L5.7269,7.0105 L5.7329,7.0145 L6.7569,7.7885 C6.8069,7.8275 6.8669,7.8465 6.9269,7.8465 C6.9859,7.8465 7.0449,7.8275 7.0969,7.7885 L8.1199,7.0145 L8.1259,7.0095 L10.1679,5.4665 L10.1679,5.1805 C10.1679,5.1025 10.1369,5.0315 10.0859,4.9805 L10.0859,4.9805 C10.0339,4.9295 9.9639,4.8985 9.8869,4.8985 L3.9669,4.8985 C3.8889,4.8985 3.8189,4.9295 3.7669,4.9805 L3.7609,4.9875 C3.7139,5.0375 3.6839,5.1045 3.6839,5.1805 L3.6839,5.4665 Z M10.5049,8.7225 C10.5089,8.7535 10.5039,8.7855 10.4909,8.8135 C10.4639,8.9285 10.4049,9.0305 10.3249,9.1105 C10.2119,9.2235 10.0569,9.2925 9.8869,9.2925 L3.9669,9.2925 C3.7959,9.2925 3.6399,9.2235 3.5279,9.1105 C3.4479,9.0305 3.3889,8.9285 3.3629,8.8135 C3.3489,8.7855 3.3439,8.7535 3.3479,8.7225 C3.3469,8.7065 3.3459,8.6885 3.3459,8.6725 L3.3459,5.1805 C3.3459,5.0145 3.4109,4.8635 3.5179,4.7515 L3.5279,4.7415 C3.6399,4.6295 3.7959,4.5595 3.9669,4.5595 L9.8869,4.5595 C10.0559,4.5595 10.2109,4.6285 10.3239,4.7415 L10.3249,4.7415 C10.4369,4.8545 10.5069,5.0095 10.5069,5.1805 L10.5069,8.6725 C10.5069,8.6885 10.5059,8.7065 10.5049,8.7225 L10.5049,8.7225 Z" id="Fill-27" fill="#FFFFFF"></path>
                <path d="M5.3469,7.1465 L3.6839,5.8895 L3.6839,8.4035 L5.3469,7.1465 Z M8.2249,7.3585 L7.3009,8.0575 C7.1889,8.1425 7.0569,8.1855 6.9269,8.1855 C6.7959,8.1855 6.6639,8.1425 6.5529,8.0575 L5.6279,7.3585 L3.7169,8.8025 C3.7299,8.8285 3.7469,8.8515 3.7669,8.8715 C3.8189,8.9225 3.8889,8.9545 3.9669,8.9545 L9.8869,8.9545 C9.9639,8.9545 10.0339,8.9225 10.0859,8.8725 L10.0859,8.8715 C10.1059,8.8515 10.1229,8.8285 10.1359,8.8025 L8.2249,7.3585 Z M10.1679,5.8895 L8.5059,7.1465 L10.1679,8.4035 L10.1679,5.8895 Z M3.6839,5.4665 L5.7269,7.0105 L5.7329,7.0145 L6.7569,7.7885 C6.8069,7.8275 6.8669,7.8465 6.9269,7.8465 C6.9859,7.8465 7.0449,7.8275 7.0969,7.7885 L8.1199,7.0145 L8.1259,7.0095 L10.1679,5.4665 L10.1679,5.1805 C10.1679,5.1025 10.1369,5.0315 10.0859,4.9805 L10.0859,4.9805 C10.0339,4.9295 9.9639,4.8985 9.8869,4.8985 L3.9669,4.8985 C3.8889,4.8985 3.8189,4.9295 3.7669,4.9805 L3.7609,4.9875 C3.7139,5.0375 3.6839,5.1045 3.6839,5.1805 L3.6839,5.4665 Z M10.5049,8.7225 C10.5089,8.7535 10.5039,8.7855 10.4909,8.8135 C10.4639,8.9285 10.4049,9.0305 10.3249,9.1105 C10.2119,9.2235 10.0569,9.2925 9.8869,9.2925 L3.9669,9.2925 C3.7959,9.2925 3.6399,9.2235 3.5279,9.1105 C3.4479,9.0305 3.3889,8.9285 3.3629,8.8135 C3.3489,8.7855 3.3439,8.7535 3.3479,8.7225 C3.3469,8.7065 3.3459,8.6885 3.3459,8.6725 L3.3459,5.1805 C3.3459,5.0145 3.4109,4.8635 3.5179,4.7515 L3.5279,4.7415 C3.6399,4.6295 3.7959,4.5595 3.9669,4.5595 L9.8869,4.5595 C10.0559,4.5595 10.2109,4.6285 10.3239,4.7415 L10.3249,4.7415 C10.4369,4.8545 10.5069,5.0095 10.5069,5.1805 L10.5069,8.6725 C10.5069,8.6885 10.5059,8.7065 10.5049,8.7225 Z" id="Stroke-29" stroke="#FFFFFF" stroke-width="0.25"></path>
            </g>
        </g>
    </g>
</svg>