<?xml version="1.0" encoding="UTF-8"?>
<svg width="37px" height="32px" viewBox="0 0 37 32" version="1.1" xmlns="http://www.w3.org/2000/svg" xmlns:xlink="http://www.w3.org/1999/xlink">
    <!-- Generator: Sketch 61 (89581) - https://sketch.com -->
    <title>pago seguro</title>
    <desc>Created with Sketch.</desc>
    <g id="Page-1" stroke="none" stroke-width="1" fill="none" fill-rule="evenodd">
        <g id="03_Detalle-1" transform="translate(-844.000000, -989.000000)" stroke="#000000">
            <g id="pago-seguro" transform="translate(845.000000, 990.000000)">
                <g id="Group-15">
                    <path d="M16.5473774,19.0633019 L3.34001887,19.0633019 C1.78341509,19.0633019 0.509830189,17.789717 0.509830189,16.2331132 L0.509830189,3.33990566 C0.509830189,1.78330189 1.78341509,0.509716981 3.34001887,0.509716981 L27.731717,0.509716981 C29.2883208,0.509716981 30.5619057,1.78330189 30.5619057,3.33990566 L30.5619057,8.57632075" id="Stroke-1" stroke-width="1.8"></path>
                    <line x1="0.722377358" y1="5.19701887" x2="30.3493585" y2="5.19701887" id="Stroke-3" stroke-width="1.8"></line>
                    <line x1="5.33909434" y1="14.0283396" x2="13.9060755" y2="14.0283396" id="Stroke-5" stroke-width="1.8"></line>
                    <path d="M21.7760377,16.8378113 L21.7760377,13.3906415 C21.7760377,12.0695094 22.8566038,10.9878113 24.179434,10.9878113 L29.7854717,10.9878113 C31.1071698,10.9878113 32.1883019,12.0695094 32.1883019,13.3906415 L32.1883019,16.8378113" id="Stroke-7" stroke-width="1.8"></path>
                    <path d="M34.9576981,28.628434 C34.9576981,29.289 34.4171321,29.829566 33.755434,29.829566 L20.2078868,29.829566 C19.5473208,29.829566 19.0067547,29.289 19.0067547,28.628434 L19.0067547,18.0344717 C19.0067547,17.3733396 19.5473208,16.8327736 20.2078868,16.8327736 L33.755434,16.8327736 C34.4171321,16.8327736 34.9576981,17.3733396 34.9576981,18.0344717 L34.9576981,28.628434 Z" id="Stroke-9" stroke-width="1.8"></path>
                    <line x1="26.9820566" y1="22.1446981" x2="26.9820566" y2="25.9303585" id="Stroke-11" stroke-width="1.8"></line>
                    <path d="M27.7385094,21.936283 C27.7385094,22.3540189 27.4000189,22.6925094 26.982283,22.6925094 C26.5639811,22.6925094 26.2260566,22.3540189 26.2260566,21.936283 C26.2260566,21.5185472 26.5639811,21.1800566 26.982283,21.1800566 C27.4000189,21.1800566 27.7385094,21.5185472 27.7385094,21.936283 Z" id="Stroke-13" stroke-width="1.8"></path>
                </g>
            </g>
        </g>
    </g>
</svg>