<?xml version="1.0" encoding="utf-8"?>
<!-- Generator: Adobe Illustrator 24.2.0, SVG Export Plug-In . SVG Version: 6.00 Build 0)  -->
<svg version="1.1" id="Layer_1" xmlns="http://www.w3.org/2000/svg" xmlns:xlink="http://www.w3.org/1999/xlink" x="0px" y="0px"
	 viewBox="0 0 24.4 24.2" style="enable-background:new 0 0 24.4 24.2;" xml:space="preserve">
<style type="text/css">
	.st0{fill:#EB0029;}
	.st1{fill:#FFFFFF;}
</style>
<path class="st0" d="M12.2,22.9c6,0,10.8-4.8,10.8-10.8S18.2,1.3,12.2,1.3S1.4,6.1,1.4,12.1S6.2,22.9,12.2,22.9
	C12.2,22.9,12.2,22.9,12.2,22.9"/>
<path class="st1" d="M12.2,4.7c-4.1,0-7.4,3.2-7.4,7.3c0,2.9,1.7,5.6,4.4,6.8c0-0.6,0-1.1,0.1-1.7l0.9-4c-0.2-0.4-0.2-0.8-0.2-1.2
	c0-1.1,0.6-1.9,1.4-1.9c0.6,0,1,0.4,1,1c0,0,0,0.1,0,0.1c-0.1,0.9-0.4,1.8-0.6,2.6c-0.2,0.6,0.2,1.2,0.8,1.4c0.1,0,0.2,0,0.3,0
	c1.4,0,2.3-1.8,2.3-3.9c0-1.5-1.1-2.8-2.7-2.8c-0.1,0-0.2,0-0.3,0c-1.9-0.1-3.5,1.4-3.6,3.3c0,0.1,0,0.2,0,0.3c0,0.5,0.1,1,0.5,1.4
	c0.1,0.1,0.2,0.3,0.1,0.4c0,0.1-0.1,0.5-0.1,0.6c0,0.1-0.1,0.2-0.3,0.2c0,0-0.1,0-0.1,0c-1-0.5-1.6-1.6-1.5-2.8
	c0-2.1,1.8-4.6,5.2-4.6c2.4-0.1,4.5,1.7,4.6,4.1c0,0,0,0.1,0,0.1c0,2.9-1.6,5-4,5c-0.7,0-1.4-0.3-1.8-0.9c0,0-0.4,1.7-0.5,2
	c-0.2,0.6-0.4,1.1-0.7,1.6c0.7,0.2,1.4,0.3,2.1,0.3c4.1,0,7.3-3.3,7.3-7.3C19.5,7.9,16.3,4.7,12.2,4.7"/>
</svg>
