<?xml version="1.0" encoding="UTF-8"?>
<svg width="163px" height="31px" viewBox="0 0 163 31" version="1.1" xmlns="http://www.w3.org/2000/svg" xmlns:xlink="http://www.w3.org/1999/xlink">
    <title>iconos copy 3</title>
    <defs>
        <radialGradient cx="15.3148736%" cy="99.1686124%" fx="15.3148736%" fy="99.1686124%" r="108.921337%" gradientTransform="translate(0.153149,0.991686),scale(0.999387,1.000000),translate(-0.153149,-0.991686)" id="radialGradient-1">
            <stop stop-color="#F7E000" offset="0%"></stop>
            <stop stop-color="#F7C800" offset="4%"></stop>
            <stop stop-color="#F6B000" offset="10%"></stop>
            <stop stop-color="#F6A700" offset="13%"></stop>
            <stop stop-color="#E66149" offset="32%"></stop>
            <stop stop-color="#E4544D" offset="36%"></stop>
            <stop stop-color="#DE3159" offset="43%"></stop>
            <stop stop-color="#D70568" offset="50%"></stop>
            <stop stop-color="#BC0090" offset="66%"></stop>
            <stop stop-color="#A113A5" offset="76%"></stop>
            <stop stop-color="#8528BC" offset="87%"></stop>
            <stop stop-color="#5456DA" offset="100%"></stop>
        </radialGradient>
    </defs>
    <g id="Page-1" stroke="none" stroke-width="1" fill="none" fill-rule="evenodd">
        <g id="Contáctanos" transform="translate(-1013.000000, -464.000000)">
            <g id="iconos-copy-3" transform="translate(1007.000000, 462.000000)">
                <g id="Group-3" transform="translate(6.170455, 3.823128)"></g>
                <g id="Group-6" transform="translate(12.340909, 9.989794)"></g>
                <g id="Group-2" transform="translate(88.443182, 4.111111)"></g>
                <g id="Group" transform="translate(6.170455, 2.055556)">
                    <path d="M15.4276613,0 C6.90893298,0 0.000411363636,6.90205491 0.000411363636,15.4177795 C0.000411363636,23.9312784 6.90893298,30.8333333 15.4276613,30.8333333 C23.9463896,30.8333333 30.8526841,23.9312784 30.8526841,15.4177795 C30.8526841,6.90205491 23.9463896,0 15.4276613,0" id="Fill-1" fill="#1F79EB"></path>
                    <path d="M19.9393961,15.4284664 L15.9886395,15.4284664 L15.9886395,12.5582967 C15.9886395,11.2557157 16.3367905,10.3663673 18.1359309,10.3663673 L19.8010007,10.3663673 C20.1469892,10.3663673 20.4281049,10.0744095 20.4281049,9.71507686 L20.4281049,6.82020297 C20.4281049,6.45862447 20.1469892,6.16666667 19.8010007,6.16666667 L17.0871531,6.16666667 C13.7808001,6.16666667 11.5167376,8.26427117 11.5167376,12.1113767 L11.5167376,15.4284664 L8.85695075,15.4284664 C8.50879978,15.4284664 8.22768409,15.7226701 8.22768409,16.0842486 L8.24282109,19.5158756 C8.24282109,19.8752083 8.52393678,20.1671661 8.86992532,20.1671661 L11.5340371,20.1671661 L11.5167376,30.3901808 C11.5167376,30.3901808 12.9482652,30.9336715 15.9886395,30.8168884 L16.0059389,20.1671661 L19.5479966,20.1671661 C19.8658736,20.1671661 20.1340147,19.9201249 20.1729384,19.5922338 L20.5643379,16.1583609 C20.6075865,15.7698325 20.3156587,15.4284664 19.9393961,15.4284664" id="Fill-4" fill="#FFFFFF"></path>
                </g>
                <g id="Group-4" transform="translate(88.443182, 4.111111)"></g>
                <g id="Group-5" transform="translate(94.613636, 2.055556)">
                    <path d="M15.4250228,0 C6.9062945,0 0,6.90205491 0,15.4177795 C0,23.9312784 6.9062945,30.8333333 15.4250228,30.8333333 C23.9437511,30.8333333 30.8522727,23.9312784 30.8522727,15.4177795 C30.8522727,6.90205491 23.9437511,0 15.4250228,0" id="Fill-7" fill="#34AAF3"></path>
                    <path d="M24.4206704,9.89427037 C24.0530577,10.0643092 23.6731913,10.1982791 23.2859726,10.2961802 C23.7148541,9.86850691 24.0359025,9.33262708 24.2197088,8.73491495 C24.2687239,8.56487616 24.0947205,8.41544812 23.9452247,8.50819656 C23.4060594,8.8456978 22.8203298,9.09817965 22.2149943,9.26048941 C22.1757823,9.27079479 22.1414717,9.27337113 22.1047105,9.27337113 C21.9919759,9.27337113 21.8865936,9.23214961 21.8008173,9.1522829 C21.153819,8.55199443 20.3205635,8.22222222 19.4529976,8.22222222 C19.0804834,8.22222222 18.7006169,8.28405451 18.3305535,8.40514274 C17.1787004,8.77871282 16.2939792,9.77575848 16.0121428,11.0072516 C15.9092112,11.4684174 15.882253,11.9321596 15.9288172,12.3804436 C15.9361695,12.4319706 15.911662,12.4680394 15.8969575,12.4860738 C15.87245,12.5144136 15.8381395,12.5298717 15.7989274,12.5298717 L15.7891244,12.5298717 C13.2697521,12.2851189 10.9979057,11.0124043 9.39511434,8.94102258 C9.31178879,8.83539242 9.15494071,8.84827415 9.09122118,8.96420969 C8.77507426,9.53358202 8.61087393,10.1802447 8.61087393,10.8397891 C8.61087393,11.8522928 8.99809263,12.8029643 9.66959848,13.4960012 C9.38531133,13.4264399 9.11082719,13.3182334 8.85839981,13.1688053 C8.73586224,13.0966677 8.58636642,13.1919924 8.58391566,13.3362678 C8.56430965,14.8382771 9.40246659,16.1754004 10.6572512,16.7756888 L10.5788272,16.7756888 C10.3803164,16.7756888 10.1793547,16.7602308 9.98084389,16.7164329 C9.84360182,16.6906695 9.72596576,16.8297921 9.77007928,16.9689148 C10.176904,18.3034617 11.2699391,19.2876256 12.5786402,19.5091913 C11.4905067,20.2743659 10.225919,20.6814284 8.91231634,20.6814284 L8.50304087,20.6814284 C8.37560181,20.6814284 8.26776875,20.7664478 8.23590898,20.8978414 C8.20404922,21.021506 8.26286725,21.155476 8.3707003,21.2250373 C9.85340483,22.1319109 11.546874,22.6111111 13.2623999,22.6111111 C14.7671611,22.6111111 16.1714416,22.2942206 17.4433815,21.6758977 C18.6074884,21.1091018 19.6392547,20.3001293 20.5019191,19.2670148 C21.3082163,18.306038 21.9380594,17.1956331 22.3767439,15.9692927 C22.7909208,14.799632 23.0139392,13.5526808 23.0139392,12.3598329 L23.0139392,12.3031533 C23.0139392,12.1125037 23.094814,11.9321596 23.2394083,11.8110713 C23.7834751,11.3447528 24.2564701,10.7959912 24.6485903,10.182821 C24.7539726,10.0205113 24.5897723,9.81698001 24.4206704,9.89427037" id="Fill-9" fill="#FFFFFF"></path>
                </g>
                <g id="pinterest-02" transform="translate(137.806818, 2.055556)" fill-rule="nonzero">
                    <g id="Group-7">
                        <path d="M15.1456612,30.2727273 C23.5599174,30.2727273 30.2913223,23.5454545 30.2913223,15.1363636 C30.2913223,6.72727273 23.5599174,-4.97918205e-15 15.1456612,-4.97918205e-15 C6.73140496,-4.97918205e-15 -3.8363252e-13,6.72727273 -3.8363252e-13,15.1363636 C-3.8363252e-13,23.5454545 6.73140496,30.2727273 15.1456612,30.2727273 C15.1456612,30.2727273 15.1456612,30.2727273 15.1456612,30.2727273" id="Path" fill="#EB0029"></path>
                        <path d="M15.1456612,4.76515152 C9.39591942,4.76515152 4.76807851,9.25 4.76807851,14.9962121 C4.76807851,19.0606061 7.15211777,22.844697 10.9385331,24.5265152 C10.9385331,23.6856061 10.9385331,22.9848485 11.0787707,22.1439394 L12.3409091,16.5378788 C12.0604339,15.9772727 12.0604339,15.4166667 12.0604339,14.8560606 C12.0604339,13.3143939 12.9018595,12.1931818 14.0237603,12.1931818 C14.865186,12.1931818 15.4261364,12.7537879 15.4261364,13.594697 C15.4261364,13.594697 15.4261364,13.7348485 15.4261364,13.7348485 C15.2858988,14.9962121 14.865186,16.2575758 14.5847107,17.3787879 C14.3042355,18.219697 14.865186,19.0606061 15.7066116,19.3409091 C15.8468492,19.3409091 15.9870868,19.3409091 16.1273244,19.3409091 C18.0906508,19.3409091 19.3527893,16.8181818 19.3527893,13.875 C19.3527893,11.7727273 17.8101756,9.95075758 15.566374,9.95075758 C15.4261364,9.95075758 15.2858988,9.95075758 15.1456612,9.95075758 C12.4811467,9.81060606 10.237345,11.9128788 10.0971074,14.5757576 C10.0971074,14.7159091 10.0971074,14.8560606 10.0971074,14.9962121 C10.0971074,15.6969697 10.237345,16.3977273 10.7982955,16.9583333 C10.9385331,17.0984848 11.0787707,17.3787879 10.9385331,17.5189394 C10.9385331,17.6590909 10.7982955,18.219697 10.7982955,18.3598485 C10.7982955,18.5 10.6580579,18.6401515 10.3775826,18.6401515 C10.3775826,18.6401515 10.237345,18.6401515 10.237345,18.6401515 C8.83496901,17.9393939 7.99354339,16.3977273 8.13378099,14.7159091 C8.13378099,11.7727273 10.6580579,8.26893939 15.4261364,8.26893939 C18.7918388,8.12878788 21.7368285,10.6515152 21.8770661,14.0151515 C21.8770661,14.0151515 21.8770661,14.155303 21.8770661,14.155303 C21.8770661,18.219697 19.6332645,21.1628788 16.267562,21.1628788 C15.2858988,21.1628788 14.3042355,20.7424242 13.7432851,19.9015152 C13.7432851,19.9015152 13.1823347,22.2840909 13.0420971,22.7045455 C12.7616219,23.5454545 12.4811467,24.2462121 12.0604339,24.9469697 C13.0420971,25.2272727 14.0237603,25.3674242 15.0054236,25.3674242 C20.7551653,25.3674242 25.2427686,20.7424242 25.2427686,15.1363636 C25.3830062,9.25 20.8954029,4.76515152 15.1456612,4.76515152" id="Path" fill="#FFFFFF"></path>
                    </g>
                </g>
                <g id="instagram-01-2" transform="translate(49.363636, 2.055556)" fill-rule="nonzero">
                    <g id="instagram-01">
                        <path d="M15.7066116,0.336259474 C9.55302134,0.313670446 3.99271659,4.00076308 1.62208887,9.67594882 C-0.748538844,15.3511346 0.538176219,21.8948408 4.88140078,26.2514753 C9.22462534,30.6081098 15.7675495,31.9182173 21.4549463,29.5700413 C27.142343,27.2218653 30.8522727,21.6786425 30.8522727,15.5287879 C30.8522727,7.16008802 24.0803949,0.367244447 15.7066116,0.336259474 Z" id="Path" fill="url(#radialGradient-1)"></path>
                        <path d="M19.5491219,6.02651515 L11.8641012,6.02651515 C8.76605765,6.02651515 6.25459711,8.53643398 6.25459711,11.6325758 L6.25459711,19.3128788 C6.25459711,22.4090206 8.76605765,24.9189394 11.8641012,24.9189394 L19.5491219,24.9189394 C22.6471655,24.9189394 25.158626,22.4090206 25.158626,19.3128788 L25.158626,11.6886364 C25.1736011,10.1921272 24.5892189,8.75175934 23.5356054,7.6882629 C22.4819918,6.62476646 21.0466252,6.02651515 19.5491219,6.02651515 Z M23.3074897,19.3689394 C23.3074897,20.3638246 22.9110799,21.3177586 22.2058432,22.0199326 C21.5006065,22.7221065 20.5446112,23.114711 19.5491219,23.1110111 L11.8641012,23.1110111 C9.79615715,23.1110111 8.11975723,21.435614 8.11975723,19.3689394 L8.11975723,11.6886364 C8.11975723,9.62196173 9.79615715,7.94656463 11.8641012,7.94656463 L19.5491219,7.94656463 C20.5446112,7.94286475 21.5006065,8.33546927 22.2058432,9.03764319 C22.9110799,9.73981711 23.3074897,10.6937511 23.3074897,11.6886364 L23.3074897,19.3689394 Z" id="Shape" fill="#FFFFFF"></path>
                        <path d="M15.7066116,10.6094697 C12.9880783,10.6094697 10.7842717,12.8119235 10.7842717,15.5287879 C10.7842717,18.2456523 12.9880783,20.4481061 15.7066116,20.4481061 C18.4251448,20.4481061 20.6289514,18.2456523 20.6289514,15.5287879 C20.6289514,12.8119235 18.4251448,10.6094697 15.7066116,10.6094697 L15.7066116,10.6094697 Z M15.7066116,18.5280303 C14.0491583,18.5280303 12.7055269,17.1852237 12.7055269,15.5287879 C12.7055269,13.872352 14.0491583,12.5295455 15.7066116,12.5295455 C17.3640649,12.5295455 18.7076963,13.872352 18.7076963,15.5287879 C18.7076963,17.1852237 17.3640649,18.5280303 15.7066116,18.5280303 L15.7066116,18.5280303 Z" id="Shape" fill="#FFFFFF"></path>
                        <path d="M20.6429752,9.47424242 C19.9923861,9.47424242 19.4649793,10.0013254 19.4649793,10.6515152 C19.4649793,11.3017049 19.9923861,11.8287879 20.6429752,11.8287879 C21.2935644,11.8287879 21.8209711,11.3017049 21.8209711,10.6515152 C21.8133981,10.0044862 21.2904016,9.48181079 20.6429752,9.47424242 Z" id="Path" fill="#FFFFFF"></path>
                    </g>
                </g>
            </g>
        </g>
    </g>
</svg>