<?xml version="1.0" encoding="UTF-8"?>
<svg width="15px" height="15px" viewBox="0 0 15 15" version="1.1" xmlns="http://www.w3.org/2000/svg" xmlns:xlink="http://www.w3.org/1999/xlink">
    <!-- Generator: Sketch 61 (89581) - https://sketch.com -->
    <title>search icon</title>
    <desc>Created with Sketch.</desc>
    <g id="Page-1" stroke="none" stroke-width="1" fill="none" fill-rule="evenodd">
        <g id="01_Home" transform="translate(-1188.000000, -111.000000)" fill="#000000" fill-rule="nonzero">
            <g id="Group-29" transform="translate(-1.000000, 0.000000)">
                <g id="noun_Search_2830360-(1)" transform="translate(1196.500000, 118.500000) scale(-1, 1) translate(-1196.500000, -118.500000) translate(1189.000000, 111.000000)">
                    <g id="Group">
                        <g id="search-icon" transform="translate(0.000000, 0.000000)">
                            <path d="M5.86956522,-8.8817842e-16 C9.11123658,-8.8817842e-16 11.7391304,2.57198122 11.7391304,5.74468085 C11.7391304,7.29762858 11.1095321,8.70665447 10.086529,9.74059028 L14.8949806,14.4458703 C15.0223255,14.5705056 15.0223255,14.7725796 14.8949806,14.8972151 C14.7676357,15.0218505 14.5611688,15.0218505 14.433824,14.8972151 L14.433824,14.8972151 L9.6076807,10.1738957 C8.59241728,10.9956024 7.2899066,11.4893617 5.86956522,11.4893617 C2.62789386,11.4893617 -5.86197757e-14,8.91738048 -5.86197757e-14,5.74468085 C-5.86197757e-14,2.57198122 2.62789386,-8.8817842e-16 5.86956522,-8.8817842e-16 Z M5.86956522,0.638297872 C2.98807957,0.638297872 0.652173913,2.9245034 0.652173913,5.74468085 C0.652173913,8.5648583 2.98807957,10.8510638 5.86956522,10.8510638 C7.21905366,10.8510638 8.44887801,10.3496219 9.37513469,9.52672863 L9.38898685,9.50837011 C9.40101216,9.49660067 9.41374301,9.48594263 9.42704617,9.47639599 C10.4488261,8.54684947 11.0869565,7.21870126 11.0869565,5.74468085 C11.0869565,2.9245034 8.75105087,0.638297872 5.86956522,0.638297872 Z" id="Combined-Shape"></path>
                        </g>
                    </g>
                </g>
            </g>
        </g>
    </g>
</svg>