<?xml version="1.0" encoding="UTF-8"?>
<svg width="35px" height="34px" viewBox="0 0 35 34" version="1.1" xmlns="http://www.w3.org/2000/svg" xmlns:xlink="http://www.w3.org/1999/xlink">
    <!-- Generator: Sketch 61 (89581) - https://sketch.com -->
    <title>tw</title>
    <desc>Created with Sketch.</desc>
    <defs>
        <polygon id="path-1" points="0.801598824 0.189684211 34.7227835 0.189684211 34.7227835 33.9995526 0.801598824 33.9995526"></polygon>
    </defs>
    <g id="Page-1" stroke="none" stroke-width="1" fill="none" fill-rule="evenodd">
        <g id="01_Home" transform="translate(-279.000000, -7000.000000)">
            <g id="tw" transform="translate(279.000000, 7000.000000)">
                <g id="Group-7" transform="translate(0.000000, -0.000000)">
                    <mask id="mask-2" fill="white">
                        <use xlink:href="#path-1"></use>
                    </mask>
                    <g id="Clip-6"></g>
                    <path d="M24.9115012,13.4385 C24.9204776,13.5968684 24.9231706,13.7552368 24.9231706,13.9136053 C24.9231706,18.7756053 21.2122976,24.3784474 14.4251882,24.3784474 C12.3426471,24.3784474 10.4037294,23.7700263 8.77001176,22.7267632 C9.05815647,22.7616579 9.35168706,22.7777632 9.64791059,22.7777632 C11.3794718,22.7777632 12.9692047,22.1899211 14.2330918,21.2039211 C12.6182247,21.1743947 11.2555965,20.1096579 10.7861271,18.6494474 C11.0123341,18.6923947 11.2412341,18.7138684 11.4800082,18.7138684 C11.8166259,18.7138684 12.1424718,18.6709211 12.4530576,18.5868158 C10.7645835,18.2477105 9.49172,16.7633421 9.49172,14.9801316 C9.49172,14.9658158 9.49172,14.9479211 9.49261765,14.9345 C9.98991412,15.2091842 10.55992,15.3756053 11.1649341,15.3943947 C10.1721365,14.7331842 9.52224,13.6085 9.52224,12.3326053 C9.52224,11.6588684 9.70625765,11.0271842 10.0231271,10.4831842 C11.84176,12.7092895 14.5607329,14.1730789 17.6270953,14.3251842 C17.5633624,14.0567632 17.5319447,13.7776053 17.5319447,13.4886053 C17.5319447,11.4575526 19.1836153,9.80944737 21.2212741,9.80944737 C22.2831906,9.80944737 23.2427753,10.2577105 23.9151129,10.9699211 C24.7553106,10.8070789 25.5443424,10.5019737 26.2579718,10.0787632 C25.9823941,10.9395 25.3980259,11.6588684 24.6350259,12.1133947 C25.3818682,12.0248158 26.0928047,11.8270789 26.7534729,11.5353947 L26.7543706,11.5353947 L26.7534729,11.5353947 C26.2579718,12.2726579 25.6323118,12.9204474 24.9115012,13.4385 M29.7543071,5.14160526 C26.5739435,1.97155263 22.2589541,0.189236842 17.7617424,0.189236842 C13.2627353,0.189236842 8.94864353,1.97155263 5.76917765,5.14160526 C2.58881412,8.31255263 0.801598824,12.6099737 0.801598824,17.0943947 C0.801598824,21.5788158 2.58881412,25.8771316 5.76917765,29.0471842 C8.94864353,32.2181316 13.2627353,33.9995526 17.7617424,33.9995526 C22.2589541,33.9995526 26.5739435,32.2181316 29.7543071,29.0471842 C32.9355682,25.8771316 34.7227835,21.5788158 34.7227835,17.0943947 C34.7227835,12.6099737 32.9355682,8.31255263 29.7543071,5.14160526" id="Fill-5" fill="#FFFFFF" mask="url(#mask-2)"></path>
                </g>
            </g>
        </g>
    </g>
</svg>