<?xml version="1.0" encoding="UTF-8"?>
<svg width="15px" height="14px" viewBox="0 0 15 14" version="1.1" xmlns="http://www.w3.org/2000/svg" xmlns:xlink="http://www.w3.org/1999/xlink">
    <title>Group 2</title>
    <g id="simbolos" stroke="none" stroke-width="1" fill="none" fill-rule="evenodd">
        <g id="iconos" transform="translate(-21.000000, -2.000000)">
            <g id="Group-2" transform="translate(21.581800, 2.000000)">
                <path d="M6.926,-8.8817842e-16 C3.101,-8.8817842e-16 3.28626015e-14,3.101 3.28626015e-14,6.927 C3.28626015e-14,10.752 3.101,13.853 6.926,13.853 C10.751,13.853 13.853,10.752 13.853,6.927 C13.853,3.101 10.751,-8.8817842e-16 6.926,-8.8817842e-16" id="Fill-7" fill="#34AAF3"></path>
                <path d="M10.3367,4.9434 C10.1867,5.0094 10.0317,5.0614 9.8737,5.0994 C10.0487,4.9334 10.1797,4.7254 10.2547,4.4934 C10.2747,4.4274 10.2037,4.3694 10.1427,4.4054 C9.9227,4.5364 9.6837,4.6344 9.4367,4.6974 C9.4207,4.7014 9.4067,4.7024 9.3917,4.7024 C9.3457,4.7024 9.3027,4.6864 9.2677,4.6554 C9.0037,4.4224 8.6637,4.2944 8.3097,4.2944 C8.1577,4.2944 8.0027,4.3184 7.8517,4.3654 C7.3817,4.5104 7.0207,4.8974 6.9057,5.3754 C6.8637,5.5544 6.8527,5.7344 6.8717,5.9084 C6.8747,5.9284 6.8647,5.9424 6.8587,5.9494 C6.8487,5.9604 6.8347,5.9664 6.8187,5.9664 L6.8147,5.9664 C5.7867,5.8714 4.8597,5.3774 4.2057,4.5734 C4.1717,4.5324 4.1077,4.5374 4.0817,4.5824 C3.9527,4.8034 3.8857,5.0544 3.8857,5.3104 C3.8857,5.7034 4.0437,6.0724 4.3177,6.3414 C4.2017,6.3144 4.0897,6.2724 3.9867,6.2144 C3.9367,6.1864 3.8757,6.2234 3.8747,6.2794 C3.8667,6.8624 4.2087,7.3814 4.7207,7.6144 L4.6887,7.6144 C4.6077,7.6144 4.5257,7.6084 4.4447,7.5914 C4.3887,7.5814 4.3407,7.6354 4.3587,7.6894 C4.5247,8.2074 4.9707,8.5894 5.5047,8.6754 C5.0607,8.9724 4.5447,9.1304 4.0087,9.1304 L3.8417,9.1304 C3.7897,9.1304 3.7457,9.1634 3.7327,9.2144 C3.7197,9.2624 3.7437,9.3144 3.7877,9.3414 C4.3927,9.6934 5.0837,9.8794 5.7837,9.8794 C6.3977,9.8794 6.9707,9.7564 7.4897,9.5164 C7.9647,9.2964 8.3857,8.9824 8.7377,8.5814 C9.0667,8.2084 9.3237,7.7774 9.5027,7.3014 C9.6717,6.8474 9.7627,6.3634 9.7627,5.9004 L9.7627,5.8784 C9.7627,5.8044 9.7957,5.7344 9.8547,5.6874 C10.0767,5.5064 10.2697,5.2934 10.4297,5.0554 C10.4727,4.9924 10.4057,4.9134 10.3367,4.9434" id="Fill-9" fill="#FFFFFF"></path>
            </g>
        </g>
    </g>
</svg>