<?xml version="1.0" encoding="UTF-8"?>
<svg width="15px" height="14px" viewBox="0 0 15 14" version="1.1" xmlns="http://www.w3.org/2000/svg" xmlns:xlink="http://www.w3.org/1999/xlink">
    <title>Group 4</title>
    <g id="simbolos" stroke="none" stroke-width="1" fill="none" fill-rule="evenodd">
        <g id="iconos" transform="translate(-57.000000, -2.000000)">
            <g id="Group-4" transform="translate(57.033000, 2.000000)">
                <path d="M6.927,-8.8817842e-16 C3.102,-8.8817842e-16 1.3500312e-13,3.101 1.3500312e-13,6.927 C1.3500312e-13,10.752 3.102,13.853 6.927,13.853 C10.752,13.853 13.854,10.752 13.854,6.927 C13.854,3.101 10.752,-8.8817842e-16 6.927,-8.8817842e-16" id="Fill-21" fill="#1CA811"></path>
                <path d="M9.0637,8.7232 C8.5247,9.2642 7.8067,9.5612 7.0427,9.5612 C6.5947,9.5612 6.1667,9.4602 5.7697,9.2632 L5.5137,9.1342 L4.3827,9.4022 L4.6207,8.2472 L4.4937,8.0002 C4.2877,7.5972 4.1827,7.1592 4.1827,6.7022 C4.1827,5.9382 4.4807,5.2202 5.0207,4.6802 C5.5567,4.1452 6.2857,3.8432 7.0427,3.8432 C7.8067,3.8432 8.5247,4.1402 9.0637,4.6802 C9.6047,5.2202 9.9017,5.9372 9.9017,6.7022 C9.9017,7.4592 9.5987,8.1872 9.0637,8.7232 M6.8757,3.3012 C5.0627,3.3882 3.6317,4.8972 3.6376812,6.7122 C3.6397,7.2652 3.7727,7.7862 4.0077,8.2482 L3.6467,10.0032 C3.6267,10.0982 3.7127,10.1812 3.8077,10.1592 L5.5257,9.7512 C5.9677,9.9712 6.4637,10.0982 6.9887,10.1062 C8.8427,10.1342 10.3877,8.6632 10.4457,6.8112 C10.5067,4.8252 8.8687,3.2062 6.8757,3.3012" id="Fill-23" fill="#FFFFFF"></path>
                <path d="M8.6945,7.4405 L8.0355,7.2515 C7.9485,7.2255 7.8555,7.2515 7.7925,7.3155 L7.6305,7.4795 C7.5625,7.5485 7.4595,7.5705 7.3695,7.5345 C7.0575,7.4075 6.4015,6.8255 6.2335,6.5325 C6.1855,6.4485 6.1935,6.3425 6.2525,6.2665 L6.3935,6.0845 C6.4485,6.0125 6.4605,5.9175 6.4235,5.8345 L6.1465,5.2075 C6.0795,5.0565 5.8875,5.0125 5.7615,5.1185 C5.5785,5.2745 5.3595,5.5105 5.3325,5.7735 C5.2865,6.2355 5.4845,6.8175 6.2335,7.5175 C7.1005,8.3255 7.7935,8.4325 8.2445,8.3225 C8.5005,8.2605 8.7055,8.0125 8.8345,7.8085 C8.9225,7.6705 8.8525,7.4855 8.6945,7.4405" id="Fill-25" fill="#FFFFFF"></path>
            </g>
        </g>
    </g>
</svg>