<?xml version="1.0" encoding="UTF-8"?>
<svg width="34px" height="34px" viewBox="0 0 34 34" version="1.1" xmlns="http://www.w3.org/2000/svg" xmlns:xlink="http://www.w3.org/1999/xlink">
    <!-- Generator: Sketch 61 (89581) - https://sketch.com -->
    <title>yt</title>
    <desc>Created with Sketch.</desc>
    <defs>
        <polygon id="path-1" points="1.13651311e-12 -1.08209737e-13 33.9211847 -1.08209737e-13 33.9211847 33.8100474 1.13651311e-12 33.8100474"></polygon>
    </defs>
    <g id="Page-1" stroke="none" stroke-width="1" fill="none" fill-rule="evenodd">
        <g id="01_Home" transform="translate(-224.000000, -7001.000000)">
            <g id="yt" transform="translate(224.000000, 7001.000000)">
                <g id="Group">
                    <polygon id="Fill-1" fill="#FFFFFF" points="14.4528102 19.6433807 20.0528102 16.8100474 14.4528102 13.976714"></polygon>
                    <mask id="mask-2" fill="white">
                        <use xlink:href="#path-1"></use>
                    </mask>
                    <g id="Clip-3"></g>
                    <path d="M24.8037835,22.3532105 C23.2517518,23.4313684 10.6721259,23.4313684 9.11829882,22.3532105 C7.56716471,21.2750526 7.56716471,12.5334737 9.11829882,11.4562105 C9.89566118,10.9175789 13.4279024,10.6482632 16.9610412,10.6482632 C20.4950776,10.6482632 24.0282165,10.9175789 24.8037835,11.4562105 C26.3558153,12.5334737 26.3558153,21.2750526 24.8037835,22.3532105 M28.9545035,4.95147368 C25.7732424,1.78142105 21.4591506,-7.29786602e-14 16.9610412,-7.29786602e-14 C12.4629318,-7.29786602e-14 8.14884,1.78142105 4.96847647,4.95147368 C1.78811294,8.12242105 1.13651311e-12,12.4198421 1.13651311e-12,16.9042632 C1.13651311e-12,21.3886842 1.78811294,25.6878947 4.96847647,28.8579474 C8.14884,32.028 12.4629318,33.8103158 16.9610412,33.8103158 C21.4591506,33.8103158 25.7732424,32.028 28.9545035,28.8579474 C32.1348671,25.6878947 33.9211847,21.3886842 33.9211847,16.9042632 C33.9211847,12.4198421 32.1348671,8.12242105 28.9545035,4.95147368" id="Fill-2" fill="#FFFFFF" mask="url(#mask-2)"></path>
                </g>
            </g>
        </g>
    </g>
</svg>